<mxfile host="app.diagrams.net" modified="2022-05-26T14:25:26.827Z" agent="5.0 (Windows NT 10.0; Win64; x64) AppleWebKit/537.36 (KHTML, like Gecko) Chrome/101.0.4951.64 Safari/537.36 Edg/101.0.1210.53" etag="7Nc4PTE8AXr68Lf3oJiq" version="18.1.2" type="github">
  <diagram id="zV46lwEu7LYRULikq-Hr" name="Page-1">
    <mxGraphModel dx="3019" dy="1304" grid="0" gridSize="10" guides="1" tooltips="1" connect="1" arrows="1" fold="1" page="1" pageScale="1" pageWidth="850" pageHeight="1100" math="0" shadow="0">
      <root>
        <mxCell id="0" />
        <mxCell id="1" parent="0" />
        <mxCell id="uJYRLRxjO0DMNSVMY0b4-1" value="" style="shape=cube;whiteSpace=wrap;html=1;boundedLbl=1;backgroundOutline=1;darkOpacity=0.05;darkOpacity2=0.1;" parent="1" vertex="1">
          <mxGeometry x="80" y="200" width="60" height="60" as="geometry" />
        </mxCell>
        <mxCell id="uJYRLRxjO0DMNSVMY0b4-3" value="" style="shape=cube;whiteSpace=wrap;html=1;boundedLbl=1;backgroundOutline=1;darkOpacity=0.05;darkOpacity2=0.1;" parent="1" vertex="1">
          <mxGeometry x="240" y="200" width="60" height="60" as="geometry" />
        </mxCell>
        <mxCell id="uJYRLRxjO0DMNSVMY0b4-4" value="&lt;font face=&quot;Times New Roman&quot;&gt;F&lt;sub&gt;tr&lt;/sub&gt;&lt;/font&gt;" style="text;html=1;strokeColor=none;fillColor=none;align=center;verticalAlign=middle;whiteSpace=wrap;rounded=0;" parent="1" vertex="1">
          <mxGeometry x="170" y="220" width="40" height="20" as="geometry" />
        </mxCell>
        <mxCell id="uJYRLRxjO0DMNSVMY0b4-10" value="&lt;span style=&quot;font-family: &amp;#34;times new roman&amp;#34;&quot;&gt;W&lt;b&gt;&#39;&lt;/b&gt;&lt;/span&gt;" style="text;html=1;strokeColor=none;fillColor=none;align=center;verticalAlign=middle;whiteSpace=wrap;rounded=0;" parent="1" vertex="1">
          <mxGeometry x="60" y="250" width="40" height="20" as="geometry" />
        </mxCell>
        <mxCell id="uJYRLRxjO0DMNSVMY0b4-11" value="&lt;span style=&quot;font-family: &amp;#34;times new roman&amp;#34;&quot;&gt;H&lt;b&gt;&#39;&lt;/b&gt;&lt;/span&gt;" style="text;html=1;strokeColor=none;fillColor=none;align=center;verticalAlign=middle;whiteSpace=wrap;rounded=0;" parent="1" vertex="1">
          <mxGeometry x="130" y="230" width="40" height="20" as="geometry" />
        </mxCell>
        <mxCell id="uJYRLRxjO0DMNSVMY0b4-12" value="&lt;span style=&quot;font-family: &amp;#34;times new roman&amp;#34;&quot;&gt;&lt;b&gt;&lt;font style=&quot;font-size: 14px&quot;&gt;X&lt;/font&gt;&lt;/b&gt;&lt;/span&gt;" style="text;html=1;fillColor=none;align=center;verticalAlign=middle;whiteSpace=wrap;rounded=0;strokeColor=#000000;" parent="1" vertex="1">
          <mxGeometry x="82" y="170" width="40" height="20" as="geometry" />
        </mxCell>
        <mxCell id="uJYRLRxjO0DMNSVMY0b4-16" value="&lt;span style=&quot;font-family: &amp;#34;times new roman&amp;#34;&quot;&gt;C&lt;b&gt;&#39;&lt;/b&gt;&lt;/span&gt;" style="text;html=1;strokeColor=none;fillColor=none;align=center;verticalAlign=middle;whiteSpace=wrap;rounded=0;" parent="1" vertex="1">
          <mxGeometry x="100" y="260" width="40" height="20" as="geometry" />
        </mxCell>
        <mxCell id="uJYRLRxjO0DMNSVMY0b4-18" value="&lt;span style=&quot;font-family: &amp;quot;times new roman&amp;quot;; font-size: 10px;&quot;&gt;1 &lt;/span&gt;x&lt;span style=&quot;font-family: &amp;quot;times new roman&amp;quot;; font-size: 10px;&quot;&gt; 1 &lt;/span&gt;x &lt;span style=&quot;font-family: &amp;quot;times new roman&amp;quot;; font-size: 10px;&quot;&gt;C&lt;/span&gt;" style="text;html=1;strokeColor=none;fillColor=none;align=center;verticalAlign=middle;whiteSpace=wrap;rounded=0;fontSize=10;" parent="1" vertex="1">
          <mxGeometry x="385" y="197" width="50" height="20" as="geometry" />
        </mxCell>
        <mxCell id="uJYRLRxjO0DMNSVMY0b4-20" value="&lt;span style=&quot;font-family: &amp;#34;times new roman&amp;#34;&quot;&gt;&lt;b&gt;&lt;font style=&quot;font-size: 14px&quot;&gt;U&lt;/font&gt;&lt;/b&gt;&lt;/span&gt;" style="text;html=1;fillColor=none;align=center;verticalAlign=middle;whiteSpace=wrap;rounded=0;strokeColor=#000000;" parent="1" vertex="1">
          <mxGeometry x="240" y="170" width="40" height="20" as="geometry" />
        </mxCell>
        <mxCell id="uJYRLRxjO0DMNSVMY0b4-21" value="&lt;span style=&quot;font-family: &amp;#34;times new roman&amp;#34;&quot;&gt;W&lt;/span&gt;" style="text;html=1;strokeColor=none;fillColor=none;align=center;verticalAlign=middle;whiteSpace=wrap;rounded=0;" parent="1" vertex="1">
          <mxGeometry x="220" y="250" width="40" height="20" as="geometry" />
        </mxCell>
        <mxCell id="uJYRLRxjO0DMNSVMY0b4-22" value="&lt;span style=&quot;font-family: &amp;#34;times new roman&amp;#34;&quot;&gt;H&lt;/span&gt;" style="text;html=1;strokeColor=none;fillColor=none;align=center;verticalAlign=middle;whiteSpace=wrap;rounded=0;" parent="1" vertex="1">
          <mxGeometry x="290" y="230" width="40" height="20" as="geometry" />
        </mxCell>
        <mxCell id="uJYRLRxjO0DMNSVMY0b4-23" value="&lt;span style=&quot;font-family: &amp;#34;times new roman&amp;#34;&quot;&gt;C&lt;/span&gt;" style="text;html=1;strokeColor=none;fillColor=none;align=center;verticalAlign=middle;whiteSpace=wrap;rounded=0;" parent="1" vertex="1">
          <mxGeometry x="260" y="260" width="40" height="20" as="geometry" />
        </mxCell>
        <mxCell id="uJYRLRxjO0DMNSVMY0b4-27" value="" style="endArrow=classic;html=1;" parent="1" edge="1">
          <mxGeometry width="50" height="50" relative="1" as="geometry">
            <mxPoint x="330" y="240" as="sourcePoint" />
            <mxPoint x="590" y="240" as="targetPoint" />
          </mxGeometry>
        </mxCell>
        <mxCell id="uJYRLRxjO0DMNSVMY0b4-28" value="" style="endArrow=classic;html=1;" parent="1" edge="1">
          <mxGeometry width="50" height="50" relative="1" as="geometry">
            <mxPoint x="330" y="230" as="sourcePoint" />
            <mxPoint x="380" y="200" as="targetPoint" />
          </mxGeometry>
        </mxCell>
        <mxCell id="uJYRLRxjO0DMNSVMY0b4-30" value="" style="endArrow=classic;html=1;" parent="1" edge="1">
          <mxGeometry width="50" height="50" relative="1" as="geometry">
            <mxPoint x="440" y="190" as="sourcePoint" />
            <mxPoint x="490" y="190" as="targetPoint" />
          </mxGeometry>
        </mxCell>
        <mxCell id="uJYRLRxjO0DMNSVMY0b4-31" value="" style="endArrow=classic;html=1;" parent="1" edge="1">
          <mxGeometry width="50" height="50" relative="1" as="geometry">
            <mxPoint x="550" y="197" as="sourcePoint" />
            <mxPoint x="600" y="230" as="targetPoint" />
          </mxGeometry>
        </mxCell>
        <mxCell id="uJYRLRxjO0DMNSVMY0b4-32" value="&lt;span style=&quot;font-family: &amp;#34;times new roman&amp;#34;&quot;&gt;W&lt;/span&gt;" style="text;html=1;strokeColor=none;fillColor=none;align=center;verticalAlign=middle;whiteSpace=wrap;rounded=0;" parent="1" vertex="1">
          <mxGeometry x="590" y="250" width="40" height="20" as="geometry" />
        </mxCell>
        <mxCell id="uJYRLRxjO0DMNSVMY0b4-35" value="&lt;font face=&quot;Times New Roman&quot;&gt;F&lt;sub&gt;scale&lt;/sub&gt;(&lt;b&gt;&lt;sup&gt;.&lt;/sup&gt;&lt;/b&gt;, &lt;b&gt;&lt;sup&gt;.&lt;/sup&gt;&lt;/b&gt;)&lt;/font&gt;" style="text;html=1;strokeColor=none;fillColor=none;align=center;verticalAlign=middle;whiteSpace=wrap;rounded=0;" parent="1" vertex="1">
          <mxGeometry x="440" y="215" width="60" height="20" as="geometry" />
        </mxCell>
        <mxCell id="uJYRLRxjO0DMNSVMY0b4-36" value="&lt;font face=&quot;Times New Roman&quot;&gt;F&lt;span style=&quot;font-size: 10px&quot;&gt;&lt;sub&gt;sq (&lt;/sub&gt;&lt;b&gt;.&lt;/b&gt;&lt;sub&gt;)&lt;/sub&gt;&lt;/span&gt;&lt;/font&gt;" style="text;html=1;strokeColor=none;fillColor=none;align=center;verticalAlign=middle;whiteSpace=wrap;rounded=0;" parent="1" vertex="1">
          <mxGeometry x="320" y="190" width="40" height="20" as="geometry" />
        </mxCell>
        <mxCell id="uJYRLRxjO0DMNSVMY0b4-41" value="" style="group" parent="1" vertex="1" connectable="0">
          <mxGeometry x="390" y="180" width="40" height="20" as="geometry" />
        </mxCell>
        <mxCell id="uJYRLRxjO0DMNSVMY0b4-24" value="" style="rounded=0;whiteSpace=wrap;html=1;strokeColor=#000000;" parent="uJYRLRxjO0DMNSVMY0b4-41" vertex="1">
          <mxGeometry width="40" height="20" as="geometry" />
        </mxCell>
        <mxCell id="uJYRLRxjO0DMNSVMY0b4-37" value="" style="endArrow=none;html=1;exitX=0.75;exitY=0;exitDx=0;exitDy=0;entryX=0.75;entryY=1;entryDx=0;entryDy=0;" parent="uJYRLRxjO0DMNSVMY0b4-41" source="uJYRLRxjO0DMNSVMY0b4-24" target="uJYRLRxjO0DMNSVMY0b4-24" edge="1">
          <mxGeometry width="50" height="50" relative="1" as="geometry">
            <mxPoint x="12.426470588235293" y="110" as="sourcePoint" />
            <mxPoint x="31.544117647058822" y="60" as="targetPoint" />
          </mxGeometry>
        </mxCell>
        <mxCell id="uJYRLRxjO0DMNSVMY0b4-38" value="" style="endArrow=none;html=1;exitX=0.5;exitY=0;exitDx=0;exitDy=0;entryX=0.5;entryY=1;entryDx=0;entryDy=0;" parent="uJYRLRxjO0DMNSVMY0b4-41" source="uJYRLRxjO0DMNSVMY0b4-24" target="uJYRLRxjO0DMNSVMY0b4-24" edge="1">
          <mxGeometry width="50" height="50" relative="1" as="geometry">
            <mxPoint x="12.426470588235293" y="110" as="sourcePoint" />
            <mxPoint x="31.544117647058822" y="60" as="targetPoint" />
          </mxGeometry>
        </mxCell>
        <mxCell id="uJYRLRxjO0DMNSVMY0b4-39" value="" style="endArrow=none;html=1;exitX=0.25;exitY=0;exitDx=0;exitDy=0;entryX=0.25;entryY=1;entryDx=0;entryDy=0;" parent="uJYRLRxjO0DMNSVMY0b4-41" source="uJYRLRxjO0DMNSVMY0b4-24" target="uJYRLRxjO0DMNSVMY0b4-24" edge="1">
          <mxGeometry width="50" height="50" relative="1" as="geometry">
            <mxPoint x="12.426470588235293" y="110" as="sourcePoint" />
            <mxPoint x="31.544117647058822" y="60" as="targetPoint" />
          </mxGeometry>
        </mxCell>
        <mxCell id="uJYRLRxjO0DMNSVMY0b4-47" value="&lt;font face=&quot;Times New Roman&quot;&gt;F&lt;span style=&quot;font-size: 10px&quot;&gt;&lt;sub&gt;ex (&lt;/sub&gt;&lt;b&gt;.&lt;/b&gt;&lt;sub&gt;, W)&lt;/sub&gt;&lt;/span&gt;&lt;/font&gt;" style="text;html=1;strokeColor=none;fillColor=none;align=center;verticalAlign=middle;whiteSpace=wrap;rounded=0;" parent="1" vertex="1">
          <mxGeometry x="442.5" y="163" width="47.5" height="20" as="geometry" />
        </mxCell>
        <mxCell id="uJYRLRxjO0DMNSVMY0b4-61" value="" style="group" parent="1" vertex="1" connectable="0">
          <mxGeometry x="500" y="180" width="40" height="20" as="geometry" />
        </mxCell>
        <mxCell id="uJYRLRxjO0DMNSVMY0b4-42" value="" style="group;strokeWidth=1;fillColor=#d5e8d4;container=0;strokeColor=#000000;" parent="uJYRLRxjO0DMNSVMY0b4-61" vertex="1" connectable="0">
          <mxGeometry width="10" height="20" as="geometry" />
        </mxCell>
        <mxCell id="uJYRLRxjO0DMNSVMY0b4-50" value="" style="rounded=0;whiteSpace=wrap;html=1;fillColor=#f8cecc;" parent="uJYRLRxjO0DMNSVMY0b4-61" vertex="1">
          <mxGeometry x="30" width="10" height="20" as="geometry" />
        </mxCell>
        <mxCell id="uJYRLRxjO0DMNSVMY0b4-51" value="" style="rounded=0;whiteSpace=wrap;html=1;fillColor=#fff2cc;" parent="uJYRLRxjO0DMNSVMY0b4-61" vertex="1">
          <mxGeometry x="20" width="10" height="20" as="geometry" />
        </mxCell>
        <mxCell id="uJYRLRxjO0DMNSVMY0b4-52" value="" style="rounded=0;whiteSpace=wrap;html=1;fillColor=#ffe6cc;" parent="uJYRLRxjO0DMNSVMY0b4-61" vertex="1">
          <mxGeometry x="10" width="10" height="20" as="geometry" />
        </mxCell>
        <mxCell id="uJYRLRxjO0DMNSVMY0b4-63" value="" style="group" parent="1" vertex="1" connectable="0">
          <mxGeometry x="610" y="200" width="90" height="80" as="geometry" />
        </mxCell>
        <mxCell id="uJYRLRxjO0DMNSVMY0b4-33" value="&lt;span style=&quot;font-family: &amp;#34;times new roman&amp;#34;&quot;&gt;H&lt;/span&gt;" style="text;html=1;strokeColor=none;fillColor=none;align=center;verticalAlign=middle;whiteSpace=wrap;rounded=0;" parent="uJYRLRxjO0DMNSVMY0b4-63" vertex="1">
          <mxGeometry x="50" y="30" width="40" height="20" as="geometry" />
        </mxCell>
        <mxCell id="uJYRLRxjO0DMNSVMY0b4-34" value="&lt;span style=&quot;font-family: &amp;#34;times new roman&amp;#34;&quot;&gt;C&lt;/span&gt;" style="text;html=1;strokeColor=none;fillColor=none;align=center;verticalAlign=middle;whiteSpace=wrap;rounded=0;" parent="uJYRLRxjO0DMNSVMY0b4-63" vertex="1">
          <mxGeometry x="20" y="60" width="40" height="20" as="geometry" />
        </mxCell>
        <mxCell id="uJYRLRxjO0DMNSVMY0b4-60" value="" style="group" parent="uJYRLRxjO0DMNSVMY0b4-63" vertex="1" connectable="0">
          <mxGeometry width="60" height="60" as="geometry" />
        </mxCell>
        <mxCell id="uJYRLRxjO0DMNSVMY0b4-55" value="" style="shape=cube;whiteSpace=wrap;html=1;boundedLbl=1;backgroundOutline=1;darkOpacity=0.05;darkOpacity2=0.1;fillColor=#f8cecc;" parent="uJYRLRxjO0DMNSVMY0b4-60" vertex="1">
          <mxGeometry x="30" width="30" height="60" as="geometry" />
        </mxCell>
        <mxCell id="uJYRLRxjO0DMNSVMY0b4-57" value="" style="shape=cube;whiteSpace=wrap;html=1;boundedLbl=1;backgroundOutline=1;darkOpacity=0.05;darkOpacity2=0.1;fillColor=#fff2cc;" parent="uJYRLRxjO0DMNSVMY0b4-60" vertex="1">
          <mxGeometry x="20" width="30" height="60" as="geometry" />
        </mxCell>
        <mxCell id="uJYRLRxjO0DMNSVMY0b4-58" value="" style="shape=cube;whiteSpace=wrap;html=1;boundedLbl=1;backgroundOutline=1;darkOpacity=0.05;darkOpacity2=0.1;fillColor=#ffe6cc;" parent="uJYRLRxjO0DMNSVMY0b4-60" vertex="1">
          <mxGeometry x="10" width="30" height="60" as="geometry" />
        </mxCell>
        <mxCell id="uJYRLRxjO0DMNSVMY0b4-59" value="" style="shape=cube;whiteSpace=wrap;html=1;boundedLbl=1;backgroundOutline=1;darkOpacity=0.05;darkOpacity2=0.1;fillColor=#d5e8d4;" parent="uJYRLRxjO0DMNSVMY0b4-60" vertex="1">
          <mxGeometry width="30" height="60" as="geometry" />
        </mxCell>
        <mxCell id="uJYRLRxjO0DMNSVMY0b4-64" value="" style="endArrow=classic;html=1;" parent="1" edge="1">
          <mxGeometry width="50" height="50" relative="1" as="geometry">
            <mxPoint x="160" y="240" as="sourcePoint" />
            <mxPoint x="230" y="240" as="targetPoint" />
          </mxGeometry>
        </mxCell>
        <mxCell id="uJYRLRxjO0DMNSVMY0b4-65" value="&lt;span style=&quot;font-family: &amp;quot;times new roman&amp;quot;; font-size: 10px;&quot;&gt;1 &lt;/span&gt;x&lt;span style=&quot;font-family: &amp;quot;times new roman&amp;quot;; font-size: 10px;&quot;&gt; 1 &lt;/span&gt;x&lt;span style=&quot;font-family: &amp;quot;times new roman&amp;quot;; font-size: 10px;&quot;&gt; C&lt;/span&gt;" style="text;html=1;strokeColor=none;fillColor=none;align=center;verticalAlign=middle;whiteSpace=wrap;rounded=0;fontSize=10;" parent="1" vertex="1">
          <mxGeometry x="495" y="197" width="50" height="20" as="geometry" />
        </mxCell>
        <mxCell id="E2jfVv6IwUMjEt1L54zc-5" value="&lt;b&gt;Inputs&lt;/b&gt;" style="text;html=1;strokeColor=none;fillColor=none;align=center;verticalAlign=middle;whiteSpace=wrap;rounded=0;" parent="1" vertex="1">
          <mxGeometry x="90" y="591" width="40" height="20" as="geometry" />
        </mxCell>
        <mxCell id="E2jfVv6IwUMjEt1L54zc-6" value="" style="shape=cube;whiteSpace=wrap;html=1;boundedLbl=1;backgroundOutline=1;darkOpacity=0.05;darkOpacity2=0.1;fillColor=#f5f5f5;strokeColor=#666666;fontColor=#333333;" parent="1" vertex="1">
          <mxGeometry x="210" y="590" width="40" height="120" as="geometry" />
        </mxCell>
        <mxCell id="E2jfVv6IwUMjEt1L54zc-42" value="&lt;font size=&quot;1&quot;&gt;&lt;b style=&quot;font-size: 9px&quot;&gt;Dimension Shuffle&lt;/b&gt;&lt;/font&gt;" style="text;html=1;strokeColor=none;fillColor=none;align=center;verticalAlign=middle;whiteSpace=wrap;rounded=0;rotation=-90;" parent="1" vertex="1">
          <mxGeometry x="189" y="650" width="100" height="20" as="geometry" />
        </mxCell>
        <mxCell id="E2jfVv6IwUMjEt1L54zc-79" value="" style="endArrow=classic;html=1;" parent="1" edge="1">
          <mxGeometry width="50" height="50" relative="1" as="geometry">
            <mxPoint x="260" y="650" as="sourcePoint" />
            <mxPoint x="340" y="650" as="targetPoint" />
          </mxGeometry>
        </mxCell>
        <mxCell id="E2jfVv6IwUMjEt1L54zc-27" value="" style="shape=cube;whiteSpace=wrap;html=1;boundedLbl=1;backgroundOutline=1;darkOpacity=0.05;darkOpacity2=0.1;fillColor=#b1ddf0;strokeColor=#10739e;opacity=70;" parent="1" vertex="1">
          <mxGeometry x="373.75" y="600" width="47.5" height="100" as="geometry" />
        </mxCell>
        <mxCell id="E2jfVv6IwUMjEt1L54zc-28" value="" style="shape=cube;whiteSpace=wrap;html=1;boundedLbl=1;backgroundOutline=1;darkOpacity=0.05;darkOpacity2=0.1;fillColor=#fff2cc;strokeColor=#d6b656;" parent="1" vertex="1">
          <mxGeometry x="350" y="590" width="47.5" height="120" as="geometry" />
        </mxCell>
        <mxCell id="E2jfVv6IwUMjEt1L54zc-48" value="&lt;font style=&quot;font-size: 10px&quot;&gt;&lt;b&gt;Bidirectional LSTM&lt;/b&gt;&lt;/font&gt;" style="text;html=1;strokeColor=none;fillColor=none;align=center;verticalAlign=middle;whiteSpace=wrap;rounded=0;rotation=-90;" parent="1" vertex="1">
          <mxGeometry x="334" y="651" width="100" height="20" as="geometry" />
        </mxCell>
        <mxCell id="E2jfVv6IwUMjEt1L54zc-51" value="&lt;font style=&quot;font-size: 10px&quot;&gt;&lt;b&gt;Dropout&lt;/b&gt;&lt;/font&gt;" style="text;html=1;strokeColor=none;fillColor=none;align=center;verticalAlign=middle;whiteSpace=wrap;rounded=0;rotation=-90;" parent="1" vertex="1">
          <mxGeometry x="357" y="651" width="100" height="20" as="geometry" />
        </mxCell>
        <mxCell id="YFkNAvKXcPWgVJD1HpIC-57" value="&lt;b&gt;&lt;font style=&quot;font-size: 16px&quot;&gt;Accuracy (%)&lt;/font&gt;&lt;/b&gt;" style="text;html=1;strokeColor=none;fillColor=none;align=center;verticalAlign=middle;whiteSpace=wrap;rounded=0;opacity=60;rotation=-90;" parent="1" vertex="1">
          <mxGeometry x="269" y="1551" width="140" height="20" as="geometry" />
        </mxCell>
        <mxCell id="YFkNAvKXcPWgVJD1HpIC-8" value="" style="endArrow=none;html=1;strokeWidth=2;endFill=0;" parent="1" edge="1">
          <mxGeometry x="329" y="1193" width="50" height="50" as="geometry">
            <mxPoint x="389" y="1845" as="sourcePoint" />
            <mxPoint x="389" y="1193" as="targetPoint" />
          </mxGeometry>
        </mxCell>
        <mxCell id="YFkNAvKXcPWgVJD1HpIC-7" value="" style="endArrow=none;html=1;strokeWidth=2;endFill=0;" parent="1" edge="1">
          <mxGeometry x="329" y="1193" width="50" height="50" as="geometry">
            <mxPoint x="389" y="1844" as="sourcePoint" />
            <mxPoint x="1149" y="1844" as="targetPoint" />
          </mxGeometry>
        </mxCell>
        <mxCell id="YFkNAvKXcPWgVJD1HpIC-9" value="" style="rounded=0;whiteSpace=wrap;html=1;fillColor=#f8cecc;strokeColor=#b85450;gradientColor=#ea6b66;" parent="1" vertex="1">
          <mxGeometry x="409" y="1343" width="40" height="500" as="geometry" />
        </mxCell>
        <mxCell id="YFkNAvKXcPWgVJD1HpIC-11" value="" style="endArrow=none;html=1;fontStyle=1;strokeWidth=2;" parent="1" edge="1">
          <mxGeometry x="329" y="1193" width="50" height="50" as="geometry">
            <mxPoint x="379" y="1362" as="sourcePoint" />
            <mxPoint x="389" y="1362" as="targetPoint" />
          </mxGeometry>
        </mxCell>
        <mxCell id="YFkNAvKXcPWgVJD1HpIC-12" value="" style="endArrow=none;html=1;fontStyle=1;strokeWidth=2;" parent="1" edge="1">
          <mxGeometry x="329" y="1193" width="50" height="50" as="geometry">
            <mxPoint x="379" y="1442" as="sourcePoint" />
            <mxPoint x="389" y="1442" as="targetPoint" />
          </mxGeometry>
        </mxCell>
        <mxCell id="YFkNAvKXcPWgVJD1HpIC-13" value="" style="endArrow=none;html=1;fontStyle=1;strokeWidth=2;" parent="1" edge="1">
          <mxGeometry x="329" y="1193" width="50" height="50" as="geometry">
            <mxPoint x="379" y="1522" as="sourcePoint" />
            <mxPoint x="389" y="1522" as="targetPoint" />
          </mxGeometry>
        </mxCell>
        <mxCell id="YFkNAvKXcPWgVJD1HpIC-14" value="" style="endArrow=none;html=1;fontStyle=1;strokeWidth=2;" parent="1" edge="1">
          <mxGeometry x="329" y="1193" width="50" height="50" as="geometry">
            <mxPoint x="379" y="1602" as="sourcePoint" />
            <mxPoint x="389" y="1602" as="targetPoint" />
          </mxGeometry>
        </mxCell>
        <mxCell id="YFkNAvKXcPWgVJD1HpIC-15" value="" style="endArrow=none;html=1;fontStyle=1;strokeWidth=2;" parent="1" edge="1">
          <mxGeometry x="329" y="1193" width="50" height="50" as="geometry">
            <mxPoint x="379" y="1682" as="sourcePoint" />
            <mxPoint x="389" y="1682" as="targetPoint" />
          </mxGeometry>
        </mxCell>
        <mxCell id="YFkNAvKXcPWgVJD1HpIC-16" value="" style="endArrow=none;html=1;fontStyle=1;strokeWidth=2;" parent="1" edge="1">
          <mxGeometry x="329" y="1193" width="50" height="50" as="geometry">
            <mxPoint x="379" y="1762" as="sourcePoint" />
            <mxPoint x="389" y="1762" as="targetPoint" />
          </mxGeometry>
        </mxCell>
        <mxCell id="YFkNAvKXcPWgVJD1HpIC-17" value="" style="rounded=0;whiteSpace=wrap;html=1;fillColor=#d5e8d4;strokeColor=#82b366;gradientColor=#97d077;" parent="1" vertex="1">
          <mxGeometry x="454" y="1333" width="40" height="510" as="geometry" />
        </mxCell>
        <mxCell id="YFkNAvKXcPWgVJD1HpIC-18" value="" style="rounded=0;whiteSpace=wrap;html=1;fillColor=#f8cecc;strokeColor=#b85450;gradientColor=#ea6b66;" parent="1" vertex="1">
          <mxGeometry x="674" y="1313" width="40" height="530" as="geometry" />
        </mxCell>
        <mxCell id="YFkNAvKXcPWgVJD1HpIC-19" value="" style="rounded=0;whiteSpace=wrap;html=1;fillColor=#dae8fc;strokeColor=#6c8ebf;gradientColor=#7ea6e0;" parent="1" vertex="1">
          <mxGeometry x="499" y="1323" width="40" height="520" as="geometry" />
        </mxCell>
        <mxCell id="YFkNAvKXcPWgVJD1HpIC-20" value="" style="rounded=0;whiteSpace=wrap;html=1;fillColor=#e6d0de;strokeColor=#996185;gradientColor=#d5739d;" parent="1" vertex="1">
          <mxGeometry x="544" y="1328" width="40" height="515" as="geometry" />
        </mxCell>
        <mxCell id="YFkNAvKXcPWgVJD1HpIC-21" value="" style="rounded=0;whiteSpace=wrap;html=1;fillColor=#d5e8d4;strokeColor=#82b366;gradientColor=#97d077;" parent="1" vertex="1">
          <mxGeometry x="719" y="1315" width="40" height="528" as="geometry" />
        </mxCell>
        <mxCell id="YFkNAvKXcPWgVJD1HpIC-22" value="" style="rounded=0;whiteSpace=wrap;html=1;fillColor=#e6d0de;strokeColor=#996185;gradientColor=#d5739d;" parent="1" vertex="1">
          <mxGeometry x="764" y="1303" width="40" height="540" as="geometry" />
        </mxCell>
        <mxCell id="YFkNAvKXcPWgVJD1HpIC-23" value="" style="rounded=0;whiteSpace=wrap;html=1;fillColor=#ffcd28;strokeColor=#d79b00;gradientColor=#ffa500;" parent="1" vertex="1">
          <mxGeometry x="809" y="1299" width="40" height="544" as="geometry" />
        </mxCell>
        <mxCell id="YFkNAvKXcPWgVJD1HpIC-24" value="" style="rounded=0;whiteSpace=wrap;html=1;fillColor=#f8cecc;strokeColor=#b85450;gradientColor=#ea6b66;" parent="1" vertex="1">
          <mxGeometry x="895" y="1783" width="40" height="60" as="geometry" />
        </mxCell>
        <mxCell id="YFkNAvKXcPWgVJD1HpIC-25" value="" style="rounded=0;whiteSpace=wrap;html=1;fillColor=#ffcd28;strokeColor=#d79b00;gradientColor=#ffa500;" parent="1" vertex="1">
          <mxGeometry x="1075" y="1313" width="40" height="530" as="geometry" />
        </mxCell>
        <mxCell id="YFkNAvKXcPWgVJD1HpIC-26" value="" style="rounded=0;whiteSpace=wrap;html=1;fillColor=#dae8fc;strokeColor=#6c8ebf;gradientColor=#7ea6e0;" parent="1" vertex="1">
          <mxGeometry x="985" y="1373" width="40" height="470" as="geometry" />
        </mxCell>
        <mxCell id="YFkNAvKXcPWgVJD1HpIC-27" value="" style="rounded=0;whiteSpace=wrap;html=1;fillColor=#d5e8d4;strokeColor=#82b366;gradientColor=#97d077;" parent="1" vertex="1">
          <mxGeometry x="940" y="1713" width="40" height="130" as="geometry" />
        </mxCell>
        <mxCell id="YFkNAvKXcPWgVJD1HpIC-32" value="" style="rounded=0;whiteSpace=wrap;html=1;fillColor=#ffcd28;strokeColor=#d79b00;gradientColor=#ffa500;" parent="1" vertex="1">
          <mxGeometry x="589" y="1319" width="40" height="524" as="geometry" />
        </mxCell>
        <mxCell id="YFkNAvKXcPWgVJD1HpIC-33" value="" style="rounded=0;whiteSpace=wrap;html=1;fillColor=#e6d0de;strokeColor=#996185;gradientColor=#d5739d;" parent="1" vertex="1">
          <mxGeometry x="1030" y="1503" width="40" height="340" as="geometry" />
        </mxCell>
        <mxCell id="YFkNAvKXcPWgVJD1HpIC-49" value="" style="group" parent="1" vertex="1" connectable="0">
          <mxGeometry x="949" y="1198" width="194" height="80" as="geometry" />
        </mxCell>
        <mxCell id="YFkNAvKXcPWgVJD1HpIC-50" value="&lt;b&gt;&lt;font style=&quot;font-size: 12px&quot;&gt;&lt;span style=&quot;color: rgb(5 , 5 , 5)&quot;&gt;Ordóñez&lt;/span&gt;&lt;font data-font-src=&quot;https://fonts.googleapis.com/css?family=cm+roman&quot; style=&quot;font-size: 12px&quot;&gt;&amp;nbsp;and Roger [23]&lt;br&gt;&lt;div&gt;&lt;b&gt;&lt;font data-font-src=&quot;https://fonts.googleapis.com/css?family=cm+roman&quot;&gt;Gadaleta and Rossi [25]&lt;/font&gt;&lt;/b&gt;&lt;/div&gt;&lt;div&gt;&lt;b&gt;&lt;font data-font-src=&quot;https://fonts.googleapis.com/css?family=cm+roman&quot;&gt;Tran et al. [26]&lt;/font&gt;&lt;/b&gt;&lt;/div&gt;&lt;/font&gt;&lt;/font&gt;&lt;/b&gt;&lt;div&gt;&lt;b&gt;&lt;font data-font-src=&quot;https://fonts.googleapis.com/css?family=cm+roman&quot; style=&quot;font-size: 12px&quot;&gt;Zou et al. [27]&lt;/font&gt;&lt;/b&gt;&lt;/div&gt;&lt;div&gt;&lt;b&gt;&lt;font data-font-src=&quot;https://fonts.googleapis.com/css?family=cm+roman&quot; style=&quot;font-size: 12px&quot;&gt;Our Approach&lt;/font&gt;&lt;/b&gt;&lt;/div&gt;" style="text;html=1;fillColor=none;align=right;verticalAlign=middle;whiteSpace=wrap;rounded=0;strokeColor=#000000;" parent="YFkNAvKXcPWgVJD1HpIC-49" vertex="1">
          <mxGeometry width="194" height="80" as="geometry" />
        </mxCell>
        <mxCell id="YFkNAvKXcPWgVJD1HpIC-58" value="&lt;b&gt;&lt;font color=&quot;#ff0000&quot;&gt;92.25&lt;/font&gt;&lt;/b&gt;" style="text;html=1;strokeColor=none;fillColor=none;align=center;verticalAlign=middle;whiteSpace=wrap;rounded=0;opacity=60;" parent="1" vertex="1">
          <mxGeometry x="409" y="1318" width="40" height="20" as="geometry" />
        </mxCell>
        <mxCell id="YFkNAvKXcPWgVJD1HpIC-59" value="&lt;b&gt;&lt;font color=&quot;#ff8000&quot;&gt;94.30&lt;/font&gt;&lt;/b&gt;" style="text;html=1;strokeColor=none;fillColor=none;align=center;verticalAlign=middle;whiteSpace=wrap;rounded=0;opacity=60;" parent="1" vertex="1">
          <mxGeometry x="588" y="1294" width="40" height="20" as="geometry" />
        </mxCell>
        <mxCell id="YFkNAvKXcPWgVJD1HpIC-60" value="&lt;b&gt;&lt;font color=&quot;#990099&quot;&gt;93.12&lt;/font&gt;&lt;/b&gt;" style="text;html=1;strokeColor=none;fillColor=none;align=center;verticalAlign=middle;whiteSpace=wrap;rounded=0;opacity=60;" parent="1" vertex="1">
          <mxGeometry x="544" y="1302" width="40" height="20" as="geometry" />
        </mxCell>
        <mxCell id="YFkNAvKXcPWgVJD1HpIC-61" value="&lt;b&gt;&lt;font color=&quot;#007fff&quot;&gt;94.15&lt;/font&gt;&lt;/b&gt;" style="text;html=1;strokeColor=none;fillColor=none;align=center;verticalAlign=middle;whiteSpace=wrap;rounded=0;opacity=60;" parent="1" vertex="1">
          <mxGeometry x="499" y="1298" width="40" height="20" as="geometry" />
        </mxCell>
        <mxCell id="YFkNAvKXcPWgVJD1HpIC-62" value="&lt;b&gt;&lt;font color=&quot;#009900&quot;&gt;92.91&lt;/font&gt;&lt;/b&gt;" style="text;html=1;strokeColor=none;fillColor=none;align=center;verticalAlign=middle;whiteSpace=wrap;rounded=0;opacity=60;" parent="1" vertex="1">
          <mxGeometry x="454" y="1307" width="40" height="20" as="geometry" />
        </mxCell>
        <mxCell id="YFkNAvKXcPWgVJD1HpIC-63" value="&lt;b&gt;96.80&lt;/b&gt;" style="text;html=1;strokeColor=none;fillColor=none;align=center;verticalAlign=middle;whiteSpace=wrap;rounded=0;opacity=60;" parent="1" vertex="1">
          <mxGeometry x="674" y="1287" width="40" height="20" as="geometry" />
        </mxCell>
        <mxCell id="YFkNAvKXcPWgVJD1HpIC-68" value="&lt;b&gt;&lt;font color=&quot;#009900&quot;&gt;96.78&lt;/font&gt;&lt;/b&gt;" style="text;html=1;strokeColor=none;fillColor=none;align=center;verticalAlign=middle;whiteSpace=wrap;rounded=0;opacity=60;" parent="1" vertex="1">
          <mxGeometry x="719" y="1290" width="40" height="20" as="geometry" />
        </mxCell>
        <mxCell id="YFkNAvKXcPWgVJD1HpIC-69" value="&lt;b&gt;&lt;font color=&quot;#007fff&quot;&gt;89.79&lt;/font&gt;&lt;/b&gt;" style="text;html=1;strokeColor=none;fillColor=none;align=center;verticalAlign=middle;whiteSpace=wrap;rounded=0;opacity=60;" parent="1" vertex="1">
          <mxGeometry x="985" y="1347" width="40" height="20" as="geometry" />
        </mxCell>
        <mxCell id="YFkNAvKXcPWgVJD1HpIC-70" value="&lt;b&gt;&lt;font color=&quot;#ff8000&quot;&gt;97.65&lt;/font&gt;&lt;/b&gt;" style="text;html=1;strokeColor=none;fillColor=none;align=center;verticalAlign=middle;whiteSpace=wrap;rounded=0;opacity=60;" parent="1" vertex="1">
          <mxGeometry x="809" y="1274" width="40" height="20" as="geometry" />
        </mxCell>
        <mxCell id="YFkNAvKXcPWgVJD1HpIC-71" value="&lt;b&gt;&lt;font color=&quot;#990099&quot;&gt;97.33&lt;/font&gt;&lt;/b&gt;" style="text;html=1;strokeColor=none;fillColor=none;align=center;verticalAlign=middle;whiteSpace=wrap;rounded=0;opacity=60;" parent="1" vertex="1">
          <mxGeometry x="764" y="1278" width="40" height="20" as="geometry" />
        </mxCell>
        <mxCell id="YFkNAvKXcPWgVJD1HpIC-72" value="&lt;b&gt;&lt;font color=&quot;#ff0000&quot;&gt;38.32&lt;/font&gt;&lt;/b&gt;" style="text;html=1;strokeColor=none;fillColor=none;align=center;verticalAlign=middle;whiteSpace=wrap;rounded=0;opacity=60;" parent="1" vertex="1">
          <mxGeometry x="895" y="1757" width="40" height="20" as="geometry" />
        </mxCell>
        <mxCell id="YFkNAvKXcPWgVJD1HpIC-73" value="&lt;b&gt;&lt;font color=&quot;#ff8000&quot;&gt;96.45&lt;/font&gt;&lt;/b&gt;" style="text;html=1;strokeColor=none;fillColor=none;align=center;verticalAlign=middle;whiteSpace=wrap;rounded=0;opacity=60;" parent="1" vertex="1">
          <mxGeometry x="1075" y="1287" width="40" height="20" as="geometry" />
        </mxCell>
        <mxCell id="YFkNAvKXcPWgVJD1HpIC-74" value="&lt;b&gt;&lt;font color=&quot;#009900&quot;&gt;46.20&lt;/font&gt;&lt;/b&gt;" style="text;html=1;strokeColor=none;fillColor=none;align=center;verticalAlign=middle;whiteSpace=wrap;rounded=0;opacity=60;" parent="1" vertex="1">
          <mxGeometry x="939" y="1688" width="40" height="20" as="geometry" />
        </mxCell>
        <mxCell id="YFkNAvKXcPWgVJD1HpIC-75" value="&lt;b&gt;&lt;font color=&quot;#990099&quot;&gt;72.32&lt;/font&gt;&lt;/b&gt;" style="text;html=1;strokeColor=none;fillColor=none;align=center;verticalAlign=middle;whiteSpace=wrap;rounded=0;opacity=60;" parent="1" vertex="1">
          <mxGeometry x="1030" y="1478" width="40" height="20" as="geometry" />
        </mxCell>
        <mxCell id="YFkNAvKXcPWgVJD1HpIC-76" value="&lt;font style=&quot;font-size: 14px;&quot;&gt;&lt;br style=&quot;font-size: 14px;&quot;&gt;&lt;/font&gt;&lt;span class=&quot;svngc6pa ay7djpcl ni8dbmo4 stjgntxs pmk7jnqg g0qnabr5 rfua0xdk&quot; style=&quot;height: 1px; overflow: hidden; position: absolute; width: 1px; clip: rect(1px, 1px, 1px, 1px); font-family: &amp;quot;segoe ui historic&amp;quot;, &amp;quot;segoe ui&amp;quot;, helvetica, arial, sans-serif; color: rgb(28, 30, 33); font-size: 14px;&quot;&gt;&lt;h4 class=&quot;gmql0nx0 l94mrbxd p1ri9a11 lzcic4wl&quot; dir=&quot;auto&quot; style=&quot;color: inherit; margin: 0px; padding: 0px; outline: none; font-family: inherit; font-size: 14px;&quot;&gt;&lt;div style=&quot;font-family: inherit; font-size: 14px;&quot;&gt;&lt;font style=&quot;font-size: 14px;&quot;&gt;Nahian sent&amp;nbsp;Today at 10:42 PM&lt;/font&gt;&lt;/div&gt;&lt;/h4&gt;&lt;/span&gt;&lt;div class=&quot;ni8dbmo4 stjgntxs g5ia77u1 ii04i59q j83agx80 cbu4d94t ll8tlv6m&quot; style=&quot;flex-direction: column; display: flex; align-items: flex-start; overflow: hidden; font-family: &amp;quot;segoe ui historic&amp;quot;, &amp;quot;segoe ui&amp;quot;, helvetica, arial, sans-serif; color: rgb(28, 30, 33); font-size: 14px;&quot;&gt;&lt;span class=&quot;tojvnm2t a6sixzi8 abs2jz4q a8s20v7p t1p8iaqh k5wvi7nf q3lfd5jv pk4s997a bipmatt0 cebpdrjk qowsmv63 owwhemhu dp1hu0rb dhp61c6y iyyx5f41&quot; style=&quot;align-items: inherit; display: inherit; height: inherit; min-width: inherit; min-height: inherit; width: inherit; flex-direction: inherit; max-width: inherit; max-height: inherit; font-family: inherit; font-size: 14px;&quot;&gt;&lt;div class=&quot;l60d2q6s d1544ag0 sj5x9vvc tw6a2znq l9j0dhe7 ni8dbmo4 stjgntxs qlfml3jp inkptoze e72ty7fz qmr60zad jm1wdb64 qv66sw1b ljqsnud1 g6srhlxm odn2s2vf&quot; style=&quot;padding: 7px 12px 8px; border-radius: 18px; overflow-wrap: break-word; position: relative; overflow: hidden; max-width: 564px; word-break: break-word; font-family: inherit; font-size: 14px;&quot;&gt;&lt;div dir=&quot;auto&quot; class=&quot;oo9gr5id&quot; style=&quot;font-family: inherit; font-size: 14px;&quot;&gt;&lt;span style=&quot;font-size: 14px;&quot;&gt;&lt;font style=&quot;font-size: 14px;&quot;&gt;whuGAIT Dataset #1&lt;/font&gt;&lt;/span&gt;&lt;/div&gt;&lt;/div&gt;&lt;/span&gt;&lt;/div&gt;" style="text;html=1;strokeColor=none;fillColor=none;align=center;verticalAlign=middle;whiteSpace=wrap;rounded=0;opacity=60;fontSize=14;fontStyle=0" parent="1" vertex="1">
          <mxGeometry x="435" y="1845" width="184" height="23" as="geometry" />
        </mxCell>
        <mxCell id="YFkNAvKXcPWgVJD1HpIC-77" value="&lt;div class=&quot;jn8vp64t l9j0dhe7 hpfvmrgz&quot; style=&quot;min-width: 0px; position: relative; font-size: 14px;&quot;&gt;&lt;div class=&quot;lzcic4wl&quot; tabindex=&quot;0&quot; style=&quot;outline: none; font-size: 14px;&quot;&gt;&lt;div class=&quot;ni8dbmo4 stjgntxs g5ia77u1 ii04i59q j83agx80 cbu4d94t ll8tlv6m&quot; style=&quot;flex-direction: column; display: flex; align-items: flex-start; overflow: hidden; font-size: 14px;&quot;&gt;&lt;span class=&quot;tojvnm2t a6sixzi8 abs2jz4q a8s20v7p t1p8iaqh k5wvi7nf q3lfd5jv pk4s997a bipmatt0 cebpdrjk qowsmv63 owwhemhu dp1hu0rb dhp61c6y iyyx5f41&quot; style=&quot;align-items: inherit; display: inherit; height: inherit; min-width: inherit; min-height: inherit; width: inherit; flex-direction: inherit; max-width: inherit; max-height: inherit; font-size: 14px;&quot;&gt;&lt;div class=&quot;l60d2q6s d1544ag0 sj5x9vvc tw6a2znq l9j0dhe7 ni8dbmo4 stjgntxs qlfml3jp inkptoze e72ty7fz qmr60zad jm1wdb64 qv66sw1b ljqsnud1 g6srhlxm odn2s2vf&quot; style=&quot;padding: 7px 12px 8px; border-radius: 18px; overflow-wrap: break-word; position: relative; overflow: hidden; max-width: 564px; word-break: break-word; font-size: 14px;&quot;&gt;&lt;div dir=&quot;auto&quot; class=&quot;oo9gr5id&quot; style=&quot;font-size: 14px;&quot;&gt;&lt;span style=&quot;font-size: 14px;&quot;&gt;&lt;font style=&quot;font-size: 14px;&quot;&gt;OU-ISIR Dataset&lt;/font&gt;&lt;/span&gt;&lt;/div&gt;&lt;/div&gt;&lt;/span&gt;&lt;/div&gt;&lt;/div&gt;&lt;/div&gt;" style="text;html=1;strokeColor=none;fillColor=none;align=center;verticalAlign=middle;whiteSpace=wrap;rounded=0;opacity=60;fontSize=14;fontStyle=0" parent="1" vertex="1">
          <mxGeometry x="923" y="1856" width="168" height="22" as="geometry" />
        </mxCell>
        <mxCell id="YFkNAvKXcPWgVJD1HpIC-78" value="&lt;font style=&quot;font-size: 14px;&quot;&gt;&lt;br style=&quot;font-size: 14px;&quot;&gt;&lt;/font&gt;&lt;span class=&quot;svngc6pa ay7djpcl ni8dbmo4 stjgntxs pmk7jnqg g0qnabr5 rfua0xdk&quot; style=&quot;height: 1px; overflow: hidden; position: absolute; width: 1px; clip: rect(1px, 1px, 1px, 1px); font-family: &amp;quot;segoe ui historic&amp;quot;, &amp;quot;segoe ui&amp;quot;, helvetica, arial, sans-serif; color: rgb(28, 30, 33); font-size: 14px;&quot;&gt;&lt;h4 class=&quot;gmql0nx0 l94mrbxd p1ri9a11 lzcic4wl&quot; dir=&quot;auto&quot; style=&quot;color: inherit; margin: 0px; padding: 0px; outline: none; font-family: inherit; font-size: 14px;&quot;&gt;&lt;div style=&quot;font-family: inherit; font-size: 14px;&quot;&gt;&lt;font style=&quot;font-size: 14px;&quot;&gt;Nahian sent&amp;nbsp;Today at 10:42 PM&lt;/font&gt;&lt;/div&gt;&lt;/h4&gt;&lt;/span&gt;&lt;div class=&quot;ni8dbmo4 stjgntxs g5ia77u1 ii04i59q j83agx80 cbu4d94t ll8tlv6m&quot; style=&quot;flex-direction: column; display: flex; align-items: flex-start; overflow: hidden; font-family: &amp;quot;segoe ui historic&amp;quot;, &amp;quot;segoe ui&amp;quot;, helvetica, arial, sans-serif; color: rgb(28, 30, 33); font-size: 14px;&quot;&gt;&lt;span class=&quot;tojvnm2t a6sixzi8 abs2jz4q a8s20v7p t1p8iaqh k5wvi7nf q3lfd5jv pk4s997a bipmatt0 cebpdrjk qowsmv63 owwhemhu dp1hu0rb dhp61c6y iyyx5f41&quot; style=&quot;align-items: inherit; display: inherit; height: inherit; min-width: inherit; min-height: inherit; width: inherit; flex-direction: inherit; max-width: inherit; max-height: inherit; font-family: inherit; font-size: 14px;&quot;&gt;&lt;div class=&quot;l60d2q6s d1544ag0 sj5x9vvc tw6a2znq l9j0dhe7 ni8dbmo4 stjgntxs qlfml3jp inkptoze e72ty7fz qmr60zad jm1wdb64 qv66sw1b ljqsnud1 g6srhlxm odn2s2vf&quot; style=&quot;padding: 7px 12px 8px; border-radius: 18px; overflow-wrap: break-word; position: relative; overflow: hidden; max-width: 564px; word-break: break-word; font-family: inherit; font-size: 14px;&quot;&gt;&lt;div dir=&quot;auto&quot; class=&quot;oo9gr5id&quot; style=&quot;font-family: inherit; font-size: 14px;&quot;&gt;&lt;span style=&quot;font-size: 14px;&quot;&gt;&lt;font style=&quot;font-size: 14px;&quot;&gt;whuGAIT Dataset #2&lt;/font&gt;&lt;/span&gt;&lt;/div&gt;&lt;/div&gt;&lt;/span&gt;&lt;/div&gt;" style="text;html=1;strokeColor=none;fillColor=none;align=center;verticalAlign=middle;whiteSpace=wrap;rounded=0;opacity=60;fontSize=14;fontStyle=0" parent="1" vertex="1">
          <mxGeometry x="676" y="1849" width="183" height="16" as="geometry" />
        </mxCell>
        <mxCell id="YFkNAvKXcPWgVJD1HpIC-79" value="&lt;font style=&quot;font-size: 14px;&quot;&gt;&lt;span style=&quot;font-size: 14px;&quot;&gt;40&lt;/span&gt;&lt;/font&gt;" style="text;html=1;strokeColor=none;fillColor=none;align=center;verticalAlign=middle;whiteSpace=wrap;rounded=0;opacity=60;fontStyle=0;fontSize=14;" parent="1" vertex="1">
          <mxGeometry x="344" y="1751" width="40" height="20" as="geometry" />
        </mxCell>
        <mxCell id="YFkNAvKXcPWgVJD1HpIC-80" value="&lt;font style=&quot;font-size: 14px;&quot;&gt;&lt;span style=&quot;font-size: 14px;&quot;&gt;60&lt;/span&gt;&lt;/font&gt;" style="text;html=1;strokeColor=none;fillColor=none;align=center;verticalAlign=middle;whiteSpace=wrap;rounded=0;opacity=60;fontSize=14;fontStyle=0" parent="1" vertex="1">
          <mxGeometry x="344" y="1591" width="40" height="20" as="geometry" />
        </mxCell>
        <mxCell id="YFkNAvKXcPWgVJD1HpIC-81" value="&lt;font style=&quot;font-size: 14px;&quot;&gt;&lt;span style=&quot;font-size: 14px;&quot;&gt;70&lt;/span&gt;&lt;/font&gt;" style="text;html=1;strokeColor=none;fillColor=none;align=center;verticalAlign=middle;whiteSpace=wrap;rounded=0;opacity=60;fontSize=14;fontStyle=0" parent="1" vertex="1">
          <mxGeometry x="344" y="1511" width="40" height="20" as="geometry" />
        </mxCell>
        <mxCell id="YFkNAvKXcPWgVJD1HpIC-82" value="&lt;font style=&quot;font-size: 14px;&quot;&gt;&lt;span style=&quot;font-size: 14px;&quot;&gt;30&lt;/span&gt;&lt;/font&gt;" style="text;html=1;strokeColor=none;fillColor=none;align=center;verticalAlign=middle;whiteSpace=wrap;rounded=0;opacity=60;fontSize=14;fontStyle=0" parent="1" vertex="1">
          <mxGeometry x="344" y="1833" width="40" height="20" as="geometry" />
        </mxCell>
        <mxCell id="YFkNAvKXcPWgVJD1HpIC-83" value="&lt;font style=&quot;font-size: 14px;&quot;&gt;&lt;span style=&quot;font-size: 14px;&quot;&gt;50&lt;/span&gt;&lt;/font&gt;" style="text;html=1;strokeColor=none;fillColor=none;align=center;verticalAlign=middle;whiteSpace=wrap;rounded=0;opacity=60;fontSize=14;fontStyle=0" parent="1" vertex="1">
          <mxGeometry x="344" y="1671" width="40" height="20" as="geometry" />
        </mxCell>
        <mxCell id="YFkNAvKXcPWgVJD1HpIC-85" value="&lt;font style=&quot;font-size: 14px;&quot;&gt;&lt;span style=&quot;font-size: 14px;&quot;&gt;100&lt;/span&gt;&lt;/font&gt;" style="text;html=1;strokeColor=none;fillColor=none;align=center;verticalAlign=middle;whiteSpace=wrap;rounded=0;opacity=60;fontStyle=0;fontSize=14;" parent="1" vertex="1">
          <mxGeometry x="344" y="1271" width="40" height="20" as="geometry" />
        </mxCell>
        <mxCell id="YFkNAvKXcPWgVJD1HpIC-86" value="&lt;font style=&quot;font-size: 14px;&quot;&gt;&lt;span style=&quot;font-size: 14px;&quot;&gt;90&lt;/span&gt;&lt;/font&gt;" style="text;html=1;strokeColor=none;fillColor=none;align=center;verticalAlign=middle;whiteSpace=wrap;rounded=0;opacity=60;fontStyle=0;fontSize=14;" parent="1" vertex="1">
          <mxGeometry x="344" y="1351" width="40" height="20" as="geometry" />
        </mxCell>
        <mxCell id="YFkNAvKXcPWgVJD1HpIC-87" value="&lt;font style=&quot;font-size: 14px;&quot;&gt;&lt;span style=&quot;font-size: 14px;&quot;&gt;80&lt;/span&gt;&lt;/font&gt;" style="text;html=1;strokeColor=none;fillColor=none;align=center;verticalAlign=middle;whiteSpace=wrap;rounded=0;opacity=60;fontStyle=0;fontSize=14;" parent="1" vertex="1">
          <mxGeometry x="344" y="1431" width="40" height="20" as="geometry" />
        </mxCell>
        <mxCell id="YFkNAvKXcPWgVJD1HpIC-88" value="" style="endArrow=none;html=1;strokeWidth=2;endFill=0;" parent="1" edge="1">
          <mxGeometry x="329" y="1193" width="50" height="50" as="geometry">
            <mxPoint x="389" y="1194" as="sourcePoint" />
            <mxPoint x="1149" y="1194" as="targetPoint" />
          </mxGeometry>
        </mxCell>
        <mxCell id="YFkNAvKXcPWgVJD1HpIC-89" value="" style="endArrow=none;html=1;strokeWidth=2;endFill=0;" parent="1" edge="1">
          <mxGeometry x="329" y="1193" width="50" height="50" as="geometry">
            <mxPoint x="1149" y="1845" as="sourcePoint" />
            <mxPoint x="1149" y="1193" as="targetPoint" />
          </mxGeometry>
        </mxCell>
        <mxCell id="YFkNAvKXcPWgVJD1HpIC-90" value="" style="endArrow=none;html=1;fontStyle=1;strokeWidth=2;" parent="1" edge="1">
          <mxGeometry x="329" y="1193" width="50" height="50" as="geometry">
            <mxPoint x="379" y="1282" as="sourcePoint" />
            <mxPoint x="389" y="1282" as="targetPoint" />
          </mxGeometry>
        </mxCell>
        <mxCell id="_ukQHtw32CiPaQQ8_JTz-1" value="&lt;b&gt;&lt;font style=&quot;font-size: 16px&quot;&gt;Datasets&lt;/font&gt;&lt;/b&gt;" style="text;html=1;strokeColor=none;fillColor=none;align=center;verticalAlign=middle;whiteSpace=wrap;rounded=0;opacity=60;rotation=0;" parent="1" vertex="1">
          <mxGeometry x="384.75" y="1841" width="140" height="20" as="geometry" />
        </mxCell>
        <mxCell id="_ukQHtw32CiPaQQ8_JTz-2" value="" style="group" parent="1" vertex="1" connectable="0">
          <mxGeometry x="957" y="1212" width="19" height="56" as="geometry" />
        </mxCell>
        <mxCell id="YFkNAvKXcPWgVJD1HpIC-94" value="" style="endArrow=none;html=1;fillColor=#ffe6cc;strokeWidth=6;strokeColor=#CC0000;" parent="_ukQHtw32CiPaQQ8_JTz-2" edge="1">
          <mxGeometry width="31.666666666666668" height="50" as="geometry">
            <mxPoint x="19" as="sourcePoint" />
            <mxPoint as="targetPoint" />
          </mxGeometry>
        </mxCell>
        <mxCell id="YFkNAvKXcPWgVJD1HpIC-95" value="" style="endArrow=none;html=1;fillColor=#d5e8d4;strokeColor=#82b366;strokeWidth=6;" parent="_ukQHtw32CiPaQQ8_JTz-2" edge="1">
          <mxGeometry width="31.666666666666668" height="50" as="geometry">
            <mxPoint x="19" y="13" as="sourcePoint" />
            <mxPoint y="13" as="targetPoint" />
          </mxGeometry>
        </mxCell>
        <mxCell id="YFkNAvKXcPWgVJD1HpIC-96" value="" style="endArrow=none;html=1;fillColor=#dae8fc;strokeColor=#6c8ebf;strokeWidth=6;" parent="_ukQHtw32CiPaQQ8_JTz-2" edge="1">
          <mxGeometry width="31.666666666666668" height="50" as="geometry">
            <mxPoint x="19" y="27" as="sourcePoint" />
            <mxPoint y="27" as="targetPoint" />
          </mxGeometry>
        </mxCell>
        <mxCell id="YFkNAvKXcPWgVJD1HpIC-97" value="" style="endArrow=none;html=1;fillColor=#ffcd28;strokeWidth=6;strokeColor=#d79b00;gradientColor=#ffa500;" parent="_ukQHtw32CiPaQQ8_JTz-2" edge="1">
          <mxGeometry width="31.666666666666668" height="50" as="geometry">
            <mxPoint x="19" y="56" as="sourcePoint" />
            <mxPoint y="56" as="targetPoint" />
          </mxGeometry>
        </mxCell>
        <mxCell id="YFkNAvKXcPWgVJD1HpIC-98" value="" style="endArrow=none;html=1;fillColor=#f8cecc;strokeWidth=6;strokeColor=#b85450;gradientColor=#ea6b66;opacity=90;" parent="_ukQHtw32CiPaQQ8_JTz-2" edge="1">
          <mxGeometry width="31.666666666666668" height="50" as="geometry">
            <mxPoint x="19" y="42" as="sourcePoint" />
            <mxPoint y="42" as="targetPoint" />
          </mxGeometry>
        </mxCell>
        <mxCell id="_ukQHtw32CiPaQQ8_JTz-4" value="" style="endArrow=none;html=1;fontStyle=1;strokeWidth=2;" parent="1" edge="1">
          <mxGeometry x="329" y="1355" width="50" height="50" as="geometry">
            <mxPoint x="379" y="1844" as="sourcePoint" />
            <mxPoint x="389" y="1844" as="targetPoint" />
          </mxGeometry>
        </mxCell>
        <mxCell id="_ukQHtw32CiPaQQ8_JTz-10" value="" style="endArrow=none;html=1;fontStyle=1;strokeWidth=2;" parent="1" edge="1">
          <mxGeometry x="711" y="1354" width="50" height="50" as="geometry">
            <mxPoint x="761" y="1843" as="sourcePoint" />
            <mxPoint x="761" y="1853" as="targetPoint" />
          </mxGeometry>
        </mxCell>
        <mxCell id="_ukQHtw32CiPaQQ8_JTz-11" value="" style="endArrow=none;html=1;fontStyle=1;strokeWidth=2;" parent="1" edge="1">
          <mxGeometry x="955" y="1355" width="50" height="50" as="geometry">
            <mxPoint x="1005" y="1844" as="sourcePoint" />
            <mxPoint x="1005" y="1854" as="targetPoint" />
          </mxGeometry>
        </mxCell>
        <mxCell id="_ukQHtw32CiPaQQ8_JTz-13" value="" style="endArrow=none;html=1;fontStyle=1;strokeWidth=2;" parent="1" edge="1">
          <mxGeometry x="469" y="1355" width="50" height="50" as="geometry">
            <mxPoint x="519" y="1844" as="sourcePoint" />
            <mxPoint x="519" y="1854" as="targetPoint" />
          </mxGeometry>
        </mxCell>
        <mxCell id="YLkNIvoXxTKitFG9mxhY-11" value="" style="group" parent="1" vertex="1" connectable="0">
          <mxGeometry x="340" y="320" width="135" height="220" as="geometry" />
        </mxCell>
        <mxCell id="YLkNIvoXxTKitFG9mxhY-12" value="" style="endArrow=classic;html=1;" parent="YLkNIvoXxTKitFG9mxhY-11" edge="1">
          <mxGeometry width="50" height="50" relative="1" as="geometry">
            <mxPoint x="65" y="160" as="sourcePoint" />
            <mxPoint x="90" y="160" as="targetPoint" />
          </mxGeometry>
        </mxCell>
        <mxCell id="YLkNIvoXxTKitFG9mxhY-14" value="" style="shape=cube;whiteSpace=wrap;html=1;boundedLbl=1;backgroundOutline=1;darkOpacity=0.05;darkOpacity2=0.1;fillColor=#ffe6cc;strokeColor=#d79b00;" parent="YLkNIvoXxTKitFG9mxhY-11" vertex="1">
          <mxGeometry x="20" y="110" width="40" height="100" as="geometry" />
        </mxCell>
        <mxCell id="YLkNIvoXxTKitFG9mxhY-15" value="" style="shape=cube;whiteSpace=wrap;html=1;boundedLbl=1;backgroundOutline=1;darkOpacity=0.05;darkOpacity2=0.1;fillColor=#d5e8d4;strokeColor=#82b366;" parent="YLkNIvoXxTKitFG9mxhY-11" vertex="1">
          <mxGeometry y="100" width="40" height="120" as="geometry" />
        </mxCell>
        <mxCell id="YLkNIvoXxTKitFG9mxhY-16" value="&lt;font style=&quot;font-size: 10px&quot;&gt;&lt;b&gt;Conv 1D&lt;/b&gt;&lt;/font&gt;" style="text;html=1;strokeColor=none;fillColor=none;align=center;verticalAlign=middle;whiteSpace=wrap;rounded=0;rotation=-90;" parent="YLkNIvoXxTKitFG9mxhY-11" vertex="1">
          <mxGeometry x="-20" y="160" width="100" height="20" as="geometry" />
        </mxCell>
        <mxCell id="YLkNIvoXxTKitFG9mxhY-17" value="&lt;font size=&quot;1&quot;&gt;&lt;b style=&quot;font-size: 8px&quot;&gt;Batch Norm + ReLU&lt;/b&gt;&lt;/font&gt;" style="text;html=1;strokeColor=none;fillColor=none;align=center;verticalAlign=middle;whiteSpace=wrap;rounded=0;rotation=-90;" parent="YLkNIvoXxTKitFG9mxhY-11" vertex="1">
          <mxGeometry x="0.5" y="160.5" width="99" height="20" as="geometry" />
        </mxCell>
        <mxCell id="YLkNIvoXxTKitFG9mxhY-19" value="" style="endArrow=classic;html=1;rounded=0;" parent="YLkNIvoXxTKitFG9mxhY-11" edge="1">
          <mxGeometry width="50" height="50" relative="1" as="geometry">
            <mxPoint x="48" y="48" as="sourcePoint" />
            <mxPoint x="98" y="147" as="targetPoint" />
            <Array as="points">
              <mxPoint x="98" y="48" />
            </Array>
          </mxGeometry>
        </mxCell>
        <mxCell id="YLkNIvoXxTKitFG9mxhY-20" value="" style="endArrow=classic;html=1;exitX=1.001;exitY=0.583;exitDx=0;exitDy=0;exitPerimeter=0;" parent="YLkNIvoXxTKitFG9mxhY-11" source="YLkNIvoXxTKitFG9mxhY-22" edge="1">
          <mxGeometry width="50" height="50" relative="1" as="geometry">
            <mxPoint x="110" y="160" as="sourcePoint" />
            <mxPoint x="135" y="160" as="targetPoint" />
          </mxGeometry>
        </mxCell>
        <mxCell id="YLkNIvoXxTKitFG9mxhY-21" value="" style="group" parent="YLkNIvoXxTKitFG9mxhY-11" vertex="1" connectable="0">
          <mxGeometry x="92" y="153" width="12" height="12" as="geometry" />
        </mxCell>
        <mxCell id="YLkNIvoXxTKitFG9mxhY-22" value="" style="ellipse;whiteSpace=wrap;html=1;aspect=fixed;" parent="YLkNIvoXxTKitFG9mxhY-21" vertex="1">
          <mxGeometry width="12" height="12" as="geometry" />
        </mxCell>
        <mxCell id="YLkNIvoXxTKitFG9mxhY-23" value="" style="shape=image;html=1;verticalAlign=top;verticalLabelPosition=bottom;labelBackgroundColor=#ffffff;imageAspect=0;aspect=fixed;image=https://cdn3.iconfinder.com/data/icons/user-interface-169/32/plus-128.png" parent="YLkNIvoXxTKitFG9mxhY-21" vertex="1">
          <mxGeometry width="12" height="12" as="geometry" />
        </mxCell>
        <mxCell id="YLkNIvoXxTKitFG9mxhY-50" value="" style="group" parent="1" vertex="1" connectable="0">
          <mxGeometry x="623" y="430" width="40" height="116" as="geometry" />
        </mxCell>
        <mxCell id="E2jfVv6IwUMjEt1L54zc-7" value="" style="shape=cube;whiteSpace=wrap;html=1;boundedLbl=1;backgroundOutline=1;darkOpacity=0.05;darkOpacity2=0.1;fillColor=#b0e3e6;strokeColor=#0e8088;opacity=70;" parent="YLkNIvoXxTKitFG9mxhY-50" vertex="1">
          <mxGeometry width="40" height="110" as="geometry" />
        </mxCell>
        <mxCell id="E2jfVv6IwUMjEt1L54zc-70" value="&lt;font style=&quot;font-size: 10px&quot;&gt;&lt;b&gt;Global Pooling&lt;/b&gt;&lt;/font&gt;" style="text;html=1;strokeColor=none;fillColor=none;align=center;verticalAlign=middle;whiteSpace=wrap;rounded=0;rotation=-90;" parent="YLkNIvoXxTKitFG9mxhY-50" vertex="1">
          <mxGeometry x="-21" y="56" width="100" height="20" as="geometry" />
        </mxCell>
        <mxCell id="YLkNIvoXxTKitFG9mxhY-53" value="" style="endArrow=classic;html=1;rounded=0;fontSize=8;" parent="1" edge="1">
          <mxGeometry width="50" height="50" relative="1" as="geometry">
            <mxPoint x="428" y="650" as="sourcePoint" />
            <mxPoint x="702" y="648" as="targetPoint" />
          </mxGeometry>
        </mxCell>
        <mxCell id="E2jfVv6IwUMjEt1L54zc-8" value="" style="shape=cube;whiteSpace=wrap;html=1;boundedLbl=1;backgroundOutline=1;darkOpacity=0.05;darkOpacity2=0.1;fillColor=#d0cee2;strokeColor=#56517e;" parent="1" vertex="1">
          <mxGeometry x="713" y="510" width="40" height="169" as="geometry" />
        </mxCell>
        <mxCell id="E2jfVv6IwUMjEt1L54zc-9" value="" style="shape=cube;whiteSpace=wrap;html=1;boundedLbl=1;backgroundOutline=1;darkOpacity=0.05;darkOpacity2=0.1;fillColor=#bac8d3;strokeColor=#23445d;" parent="1" vertex="1">
          <mxGeometry x="800" y="555" width="40" height="90" as="geometry" />
        </mxCell>
        <mxCell id="E2jfVv6IwUMjEt1L54zc-69" value="&lt;font style=&quot;font-size: 10px&quot;&gt;&lt;b&gt;Softmax&lt;/b&gt;&lt;/font&gt;" style="text;html=1;strokeColor=none;fillColor=none;align=center;verticalAlign=middle;whiteSpace=wrap;rounded=0;rotation=-90;" parent="1" vertex="1">
          <mxGeometry x="780" y="598" width="100" height="20" as="geometry" />
        </mxCell>
        <mxCell id="E2jfVv6IwUMjEt1L54zc-71" value="&lt;font style=&quot;font-size: 10px&quot;&gt;&lt;b&gt;Concatanate&lt;/b&gt;&lt;/font&gt;" style="text;html=1;strokeColor=none;fillColor=none;align=center;verticalAlign=middle;whiteSpace=wrap;rounded=0;rotation=-90;" parent="1" vertex="1">
          <mxGeometry x="670" y="603" width="146" height="20" as="geometry" />
        </mxCell>
        <mxCell id="E2jfVv6IwUMjEt1L54zc-82" value="" style="endArrow=classic;html=1;" parent="1" edge="1">
          <mxGeometry width="50" height="50" relative="1" as="geometry">
            <mxPoint x="760" y="600" as="sourcePoint" />
            <mxPoint x="790" y="600" as="targetPoint" />
          </mxGeometry>
        </mxCell>
        <mxCell id="YLkNIvoXxTKitFG9mxhY-54" value="" style="endArrow=classic;html=1;rounded=0;fontSize=8;" parent="1" edge="1">
          <mxGeometry width="50" height="50" relative="1" as="geometry">
            <mxPoint x="670" y="481" as="sourcePoint" />
            <mxPoint x="725" y="502" as="targetPoint" />
            <Array as="points">
              <mxPoint x="725" y="481" />
            </Array>
          </mxGeometry>
        </mxCell>
        <mxCell id="YLkNIvoXxTKitFG9mxhY-67" value="" style="group" parent="1" vertex="1" connectable="0">
          <mxGeometry x="63.25" y="526" width="98.32402333080609" height="59" as="geometry" />
        </mxCell>
        <mxCell id="YLkNIvoXxTKitFG9mxhY-57" value="" style="rounded=0;whiteSpace=wrap;html=1;fontSize=8;fillColor=default;strokeColor=#9673a6;" parent="YLkNIvoXxTKitFG9mxhY-67" vertex="1">
          <mxGeometry width="72.3312693498452" height="34.56565656565656" as="geometry" />
        </mxCell>
        <mxCell id="YLkNIvoXxTKitFG9mxhY-56" value="" style="rounded=0;whiteSpace=wrap;html=1;fontSize=8;fillColor=default;strokeColor=#9673a6;" parent="YLkNIvoXxTKitFG9mxhY-67" vertex="1">
          <mxGeometry x="4.446594427244582" y="5.363636363636363" width="72.3312693498452" height="34.56565656565656" as="geometry" />
        </mxCell>
        <mxCell id="YLkNIvoXxTKitFG9mxhY-59" value="" style="rounded=0;whiteSpace=wrap;html=1;fontSize=8;fillColor=default;strokeColor=#9673a6;" parent="YLkNIvoXxTKitFG9mxhY-67" vertex="1">
          <mxGeometry x="9.486068111455108" y="9.535353535353535" width="72.3312693498452" height="34.56565656565656" as="geometry" />
        </mxCell>
        <mxCell id="YLkNIvoXxTKitFG9mxhY-58" value="" style="rounded=0;whiteSpace=wrap;html=1;fontSize=8;fillColor=default;strokeColor=#9673a6;" parent="YLkNIvoXxTKitFG9mxhY-67" vertex="1">
          <mxGeometry x="13.93266253869969" y="14.898989898989898" width="72.3312693498452" height="34.56565656565656" as="geometry" />
        </mxCell>
        <mxCell id="YLkNIvoXxTKitFG9mxhY-61" value="" style="rounded=0;whiteSpace=wrap;html=1;fontSize=8;fillColor=default;strokeColor=#9673a6;" parent="YLkNIvoXxTKitFG9mxhY-67" vertex="1">
          <mxGeometry x="18.972136222910216" y="19.07070707070707" width="72.3312693498452" height="34.56565656565656" as="geometry" />
        </mxCell>
        <mxCell id="YLkNIvoXxTKitFG9mxhY-60" value="" style="rounded=0;whiteSpace=wrap;html=1;fontSize=8;fillColor=default;strokeColor=#9673a6;" parent="YLkNIvoXxTKitFG9mxhY-67" vertex="1">
          <mxGeometry x="23.418730650154796" y="24.434343434343432" width="72.3312693498452" height="34.56565656565656" as="geometry" />
        </mxCell>
        <mxCell id="YLkNIvoXxTKitFG9mxhY-65" value="" style="group" parent="YLkNIvoXxTKitFG9mxhY-67" vertex="1" connectable="0">
          <mxGeometry x="23.75" y="29.16999999999996" width="72.57402333080609" height="25.094796277665978" as="geometry" />
        </mxCell>
        <mxCell id="YFkNAvKXcPWgVJD1HpIC-2" value="" style="shape=image;html=1;verticalAlign=top;verticalLabelPosition=bottom;labelBackgroundColor=#ffffff;imageAspect=0;aspect=fixed;image=https://cdn2.iconfinder.com/data/icons/essential-web-5/50/pulse-activity-vital-wave-signal-128.png" parent="YLkNIvoXxTKitFG9mxhY-65" vertex="1">
          <mxGeometry width="25.094796277665996" height="25.094796277665996" as="geometry" />
        </mxCell>
        <mxCell id="YFkNAvKXcPWgVJD1HpIC-3" value="" style="shape=image;html=1;verticalAlign=top;verticalLabelPosition=bottom;labelBackgroundColor=#ffffff;imageAspect=0;aspect=fixed;image=https://cdn2.iconfinder.com/data/icons/essential-web-5/50/pulse-activity-vital-wave-signal-128.png" parent="YLkNIvoXxTKitFG9mxhY-65" vertex="1">
          <mxGeometry x="47.47922705314009" width="25.094796277665996" height="25.094796277665996" as="geometry" />
        </mxCell>
        <mxCell id="YFkNAvKXcPWgVJD1HpIC-4" value="" style="shape=image;html=1;verticalAlign=top;verticalLabelPosition=bottom;labelBackgroundColor=#ffffff;imageAspect=0;aspect=fixed;image=https://cdn2.iconfinder.com/data/icons/essential-web-5/50/pulse-activity-vital-wave-signal-128.png" parent="YLkNIvoXxTKitFG9mxhY-65" vertex="1">
          <mxGeometry x="23.73429951690821" width="25.094796277665996" height="25.094796277665996" as="geometry" />
        </mxCell>
        <mxCell id="YLkNIvoXxTKitFG9mxhY-130" value="" style="endArrow=classic;html=1;rounded=0;fontSize=12;" parent="1" edge="1">
          <mxGeometry width="50" height="50" relative="1" as="geometry">
            <mxPoint x="450" y="480.5" as="sourcePoint" />
            <mxPoint x="477" y="368" as="targetPoint" />
            <Array as="points">
              <mxPoint x="450" y="368" />
            </Array>
          </mxGeometry>
        </mxCell>
        <mxCell id="YLkNIvoXxTKitFG9mxhY-131" value="" style="endArrow=classic;html=1;rounded=0;fontSize=12;" parent="1" edge="1">
          <mxGeometry width="50" height="50" relative="1" as="geometry">
            <mxPoint x="110" y="518" as="sourcePoint" />
            <mxPoint x="194" y="368" as="targetPoint" />
            <Array as="points">
              <mxPoint x="110" y="368" />
            </Array>
          </mxGeometry>
        </mxCell>
        <mxCell id="YLkNIvoXxTKitFG9mxhY-132" value="" style="endArrow=classic;html=1;rounded=0;fontSize=12;" parent="1" edge="1">
          <mxGeometry width="50" height="50" relative="1" as="geometry">
            <mxPoint x="110" y="480" as="sourcePoint" />
            <mxPoint x="196" y="479" as="targetPoint" />
          </mxGeometry>
        </mxCell>
        <mxCell id="YLkNIvoXxTKitFG9mxhY-133" value="" style="endArrow=classic;html=1;rounded=0;fontSize=12;" parent="1" edge="1">
          <mxGeometry width="50" height="50" relative="1" as="geometry">
            <mxPoint x="112" y="612" as="sourcePoint" />
            <mxPoint x="196" y="652" as="targetPoint" />
            <Array as="points">
              <mxPoint x="112" y="652" />
            </Array>
          </mxGeometry>
        </mxCell>
        <mxCell id="YLkNIvoXxTKitFG9mxhY-38" value="" style="endArrow=classic;html=1;" parent="1" edge="1">
          <mxGeometry width="50" height="50" relative="1" as="geometry">
            <mxPoint x="545" y="480" as="sourcePoint" />
            <mxPoint x="570" y="480" as="targetPoint" />
          </mxGeometry>
        </mxCell>
        <mxCell id="YLkNIvoXxTKitFG9mxhY-40" value="" style="shape=cube;whiteSpace=wrap;html=1;boundedLbl=1;backgroundOutline=1;darkOpacity=0.05;darkOpacity2=0.1;fillColor=#ffe6cc;strokeColor=#d79b00;" parent="1" vertex="1">
          <mxGeometry x="500" y="430" width="40" height="100" as="geometry" />
        </mxCell>
        <mxCell id="YLkNIvoXxTKitFG9mxhY-41" value="" style="shape=cube;whiteSpace=wrap;html=1;boundedLbl=1;backgroundOutline=1;darkOpacity=0.05;darkOpacity2=0.1;fillColor=#d5e8d4;strokeColor=#82b366;" parent="1" vertex="1">
          <mxGeometry x="480" y="420" width="40" height="120" as="geometry" />
        </mxCell>
        <mxCell id="YLkNIvoXxTKitFG9mxhY-42" value="&lt;font style=&quot;font-size: 10px&quot;&gt;&lt;b&gt;Conv 1D&lt;/b&gt;&lt;/font&gt;" style="text;html=1;strokeColor=none;fillColor=none;align=center;verticalAlign=middle;whiteSpace=wrap;rounded=0;rotation=-90;" parent="1" vertex="1">
          <mxGeometry x="460" y="480" width="100" height="20" as="geometry" />
        </mxCell>
        <mxCell id="YLkNIvoXxTKitFG9mxhY-43" value="&lt;font size=&quot;1&quot;&gt;&lt;b style=&quot;font-size: 8px&quot;&gt;Batch Norm + ReLU&lt;/b&gt;&lt;/font&gt;" style="text;html=1;strokeColor=none;fillColor=none;align=center;verticalAlign=middle;whiteSpace=wrap;rounded=0;rotation=-90;" parent="1" vertex="1">
          <mxGeometry x="480.5" y="480.5" width="99" height="20" as="geometry" />
        </mxCell>
        <mxCell id="YLkNIvoXxTKitFG9mxhY-45" value="" style="endArrow=classic;html=1;rounded=0;" parent="1" edge="1">
          <mxGeometry width="50" height="50" relative="1" as="geometry">
            <mxPoint x="528" y="368" as="sourcePoint" />
            <mxPoint x="578" y="467" as="targetPoint" />
            <Array as="points">
              <mxPoint x="578" y="368" />
            </Array>
          </mxGeometry>
        </mxCell>
        <mxCell id="YLkNIvoXxTKitFG9mxhY-46" value="" style="endArrow=classic;html=1;" parent="1" edge="1">
          <mxGeometry width="50" height="50" relative="1" as="geometry">
            <mxPoint x="590" y="480" as="sourcePoint" />
            <mxPoint x="615" y="480" as="targetPoint" />
          </mxGeometry>
        </mxCell>
        <mxCell id="YLkNIvoXxTKitFG9mxhY-47" value="" style="group" parent="1" vertex="1" connectable="0">
          <mxGeometry x="572" y="473" width="12" height="12" as="geometry" />
        </mxCell>
        <mxCell id="YLkNIvoXxTKitFG9mxhY-48" value="" style="ellipse;whiteSpace=wrap;html=1;aspect=fixed;" parent="YLkNIvoXxTKitFG9mxhY-47" vertex="1">
          <mxGeometry width="12" height="12" as="geometry" />
        </mxCell>
        <mxCell id="YLkNIvoXxTKitFG9mxhY-49" value="" style="shape=image;html=1;verticalAlign=top;verticalLabelPosition=bottom;labelBackgroundColor=#ffffff;imageAspect=0;aspect=fixed;image=https://cdn3.iconfinder.com/data/icons/user-interface-169/32/plus-128.png" parent="YLkNIvoXxTKitFG9mxhY-47" vertex="1">
          <mxGeometry width="12" height="12" as="geometry" />
        </mxCell>
        <mxCell id="E2jfVv6IwUMjEt1L54zc-78" value="" style="endArrow=classic;html=1;" parent="1" edge="1">
          <mxGeometry width="50" height="50" relative="1" as="geometry">
            <mxPoint x="265" y="480" as="sourcePoint" />
            <mxPoint x="290" y="480" as="targetPoint" />
          </mxGeometry>
        </mxCell>
        <mxCell id="E2jfVv6IwUMjEt1L54zc-17" value="" style="shape=cube;whiteSpace=wrap;html=1;boundedLbl=1;backgroundOutline=1;darkOpacity=0.05;darkOpacity2=0.1;fillColor=#ffe6cc;strokeColor=#d79b00;" parent="1" vertex="1">
          <mxGeometry x="220" y="430" width="40" height="100" as="geometry" />
        </mxCell>
        <mxCell id="E2jfVv6IwUMjEt1L54zc-11" value="" style="shape=cube;whiteSpace=wrap;html=1;boundedLbl=1;backgroundOutline=1;darkOpacity=0.05;darkOpacity2=0.1;fillColor=#d5e8d4;strokeColor=#82b366;" parent="1" vertex="1">
          <mxGeometry x="200" y="420" width="40" height="120" as="geometry" />
        </mxCell>
        <mxCell id="E2jfVv6IwUMjEt1L54zc-50" value="&lt;font style=&quot;font-size: 10px&quot;&gt;&lt;b&gt;Conv 1D&lt;/b&gt;&lt;/font&gt;" style="text;html=1;strokeColor=none;fillColor=none;align=center;verticalAlign=middle;whiteSpace=wrap;rounded=0;rotation=-90;" parent="1" vertex="1">
          <mxGeometry x="180" y="480" width="100" height="20" as="geometry" />
        </mxCell>
        <mxCell id="E2jfVv6IwUMjEt1L54zc-47" value="&lt;font size=&quot;1&quot;&gt;&lt;b style=&quot;font-size: 8px&quot;&gt;Batch Norm + ReLU&lt;/b&gt;&lt;/font&gt;" style="text;html=1;strokeColor=none;fillColor=none;align=center;verticalAlign=middle;whiteSpace=wrap;rounded=0;rotation=-90;" parent="1" vertex="1">
          <mxGeometry x="200.5" y="480.5" width="99" height="20" as="geometry" />
        </mxCell>
        <mxCell id="YLkNIvoXxTKitFG9mxhY-1" value="" style="endArrow=classic;html=1;rounded=0;edgeStyle=orthogonalEdgeStyle;" parent="1" edge="1">
          <mxGeometry width="50" height="50" relative="1" as="geometry">
            <mxPoint x="248" y="368" as="sourcePoint" />
            <mxPoint x="298" y="467" as="targetPoint" />
          </mxGeometry>
        </mxCell>
        <mxCell id="YLkNIvoXxTKitFG9mxhY-3" value="" style="endArrow=classic;html=1;exitX=0.952;exitY=0.454;exitDx=0;exitDy=0;exitPerimeter=0;" parent="1" source="YLkNIvoXxTKitFG9mxhY-6" edge="1">
          <mxGeometry width="50" height="50" relative="1" as="geometry">
            <mxPoint x="305" y="479" as="sourcePoint" />
            <mxPoint x="335" y="479" as="targetPoint" />
          </mxGeometry>
        </mxCell>
        <mxCell id="YLkNIvoXxTKitFG9mxhY-9" value="" style="group" parent="1" vertex="1" connectable="0">
          <mxGeometry x="292" y="473" width="16" height="16" as="geometry" />
        </mxCell>
        <mxCell id="YLkNIvoXxTKitFG9mxhY-2" value="" style="ellipse;whiteSpace=wrap;html=1;aspect=fixed;" parent="YLkNIvoXxTKitFG9mxhY-9" vertex="1">
          <mxGeometry width="12" height="12" as="geometry" />
        </mxCell>
        <mxCell id="YLkNIvoXxTKitFG9mxhY-6" value="" style="shape=image;html=1;verticalAlign=top;verticalLabelPosition=bottom;labelBackgroundColor=#ffffff;imageAspect=0;aspect=fixed;image=https://cdn3.iconfinder.com/data/icons/user-interface-169/32/plus-128.png" parent="YLkNIvoXxTKitFG9mxhY-9" vertex="1">
          <mxGeometry width="13" height="13" as="geometry" />
        </mxCell>
        <mxCell id="YLkNIvoXxTKitFG9mxhY-129" value="" style="endArrow=classic;html=1;rounded=0;fontSize=12;" parent="1" edge="1">
          <mxGeometry width="50" height="50" relative="1" as="geometry">
            <mxPoint x="310" y="479" as="sourcePoint" />
            <mxPoint x="337" y="368" as="targetPoint" />
            <Array as="points">
              <mxPoint x="310" y="368" />
            </Array>
          </mxGeometry>
        </mxCell>
        <mxCell id="YLkNIvoXxTKitFG9mxhY-134" value="" style="group" parent="1" vertex="1" connectable="0">
          <mxGeometry x="200" y="313" width="46.5" height="107" as="geometry" />
        </mxCell>
        <mxCell id="YLkNIvoXxTKitFG9mxhY-135" value="" style="group" parent="YLkNIvoXxTKitFG9mxhY-134" vertex="1" connectable="0">
          <mxGeometry width="46.5" height="107" as="geometry" />
        </mxCell>
        <mxCell id="E2jfVv6IwUMjEt1L54zc-16" value="" style="shape=cube;whiteSpace=wrap;html=1;boundedLbl=1;backgroundOutline=1;darkOpacity=0.05;darkOpacity2=0.1;fillColor=#dae8fc;strokeColor=#6c8ebf;" parent="YLkNIvoXxTKitFG9mxhY-135" vertex="1">
          <mxGeometry width="46.5" height="100" as="geometry" />
        </mxCell>
        <mxCell id="E2jfVv6IwUMjEt1L54zc-49" value="&lt;font&gt;&lt;b&gt;&lt;font style=&quot;font-size: 8px&quot;&gt;Squeeze-and-Excite&lt;/font&gt;&lt;br&gt;&lt;/b&gt;&lt;/font&gt;" style="text;html=1;strokeColor=none;fillColor=none;align=center;verticalAlign=middle;whiteSpace=wrap;rounded=0;rotation=-90;" parent="YLkNIvoXxTKitFG9mxhY-135" vertex="1">
          <mxGeometry x="-15.5" y="51.5" width="91" height="20" as="geometry" />
        </mxCell>
        <mxCell id="YLkNIvoXxTKitFG9mxhY-136" value="" style="group" parent="1" vertex="1" connectable="0">
          <mxGeometry x="340" y="313" width="46.5" height="107" as="geometry" />
        </mxCell>
        <mxCell id="YLkNIvoXxTKitFG9mxhY-137" value="" style="shape=cube;whiteSpace=wrap;html=1;boundedLbl=1;backgroundOutline=1;darkOpacity=0.05;darkOpacity2=0.1;fillColor=#dae8fc;strokeColor=#6c8ebf;" parent="YLkNIvoXxTKitFG9mxhY-136" vertex="1">
          <mxGeometry width="46.5" height="100" as="geometry" />
        </mxCell>
        <mxCell id="YLkNIvoXxTKitFG9mxhY-138" value="&lt;font&gt;&lt;b&gt;&lt;font style=&quot;font-size: 8px&quot;&gt;Squeeze-and-Excite&lt;/font&gt;&lt;br&gt;&lt;/b&gt;&lt;/font&gt;" style="text;html=1;strokeColor=none;fillColor=none;align=center;verticalAlign=middle;whiteSpace=wrap;rounded=0;rotation=-90;" parent="YLkNIvoXxTKitFG9mxhY-136" vertex="1">
          <mxGeometry x="-15.5" y="51.5" width="91" height="20" as="geometry" />
        </mxCell>
        <mxCell id="YLkNIvoXxTKitFG9mxhY-139" value="" style="group" parent="1" vertex="1" connectable="0">
          <mxGeometry x="480" y="313" width="46.5" height="107" as="geometry" />
        </mxCell>
        <mxCell id="YLkNIvoXxTKitFG9mxhY-140" value="" style="shape=cube;whiteSpace=wrap;html=1;boundedLbl=1;backgroundOutline=1;darkOpacity=0.05;darkOpacity2=0.1;fillColor=#dae8fc;strokeColor=#6c8ebf;" parent="YLkNIvoXxTKitFG9mxhY-139" vertex="1">
          <mxGeometry width="46.5" height="100" as="geometry" />
        </mxCell>
        <mxCell id="YLkNIvoXxTKitFG9mxhY-141" value="&lt;font&gt;&lt;b&gt;&lt;font style=&quot;font-size: 8px&quot;&gt;Squeeze-and-Excite&lt;/font&gt;&lt;br&gt;&lt;/b&gt;&lt;/font&gt;" style="text;html=1;strokeColor=none;fillColor=none;align=center;verticalAlign=middle;whiteSpace=wrap;rounded=0;rotation=-90;" parent="YLkNIvoXxTKitFG9mxhY-139" vertex="1">
          <mxGeometry x="-15.5" y="51.5" width="91" height="20" as="geometry" />
        </mxCell>
        <mxCell id="YLkNIvoXxTKitFG9mxhY-142" value="&lt;b&gt;&lt;font style=&quot;font-size: 12px&quot;&gt;32&lt;/font&gt;&lt;/b&gt;" style="text;html=1;strokeColor=none;fillColor=none;align=center;verticalAlign=middle;whiteSpace=wrap;rounded=0;fontSize=8;" parent="1" vertex="1">
          <mxGeometry x="180" y="465" width="60" height="30" as="geometry" />
        </mxCell>
        <mxCell id="YLkNIvoXxTKitFG9mxhY-143" value="&lt;b&gt;&lt;font style=&quot;font-size: 11px&quot;&gt;512&lt;/font&gt;&lt;/b&gt;" style="text;html=1;strokeColor=none;fillColor=none;align=center;verticalAlign=middle;whiteSpace=wrap;rounded=0;fontSize=8;" parent="1" vertex="1">
          <mxGeometry x="320" y="466" width="60" height="30" as="geometry" />
        </mxCell>
        <mxCell id="YLkNIvoXxTKitFG9mxhY-144" value="&lt;b&gt;&lt;font style=&quot;font-size: 11px&quot;&gt;512&lt;/font&gt;&lt;/b&gt;" style="text;html=1;strokeColor=none;fillColor=none;align=center;verticalAlign=middle;whiteSpace=wrap;rounded=0;fontSize=8;" parent="1" vertex="1">
          <mxGeometry x="460" y="466" width="60" height="30" as="geometry" />
        </mxCell>
        <mxCell id="YLkNIvoXxTKitFG9mxhY-145" value="&lt;b&gt;&lt;font style=&quot;font-size: 12px&quot;&gt;8&lt;/font&gt;&lt;/b&gt;" style="text;html=1;strokeColor=none;fillColor=none;align=center;verticalAlign=middle;whiteSpace=wrap;rounded=0;fontSize=8;" parent="1" vertex="1">
          <mxGeometry x="330" y="635" width="60" height="30" as="geometry" />
        </mxCell>
        <mxCell id="YLkNIvoXxTKitFG9mxhY-152" value="" style="rounded=0;whiteSpace=wrap;html=1;fontSize=8;fillColor=default;" parent="1" vertex="1">
          <mxGeometry x="-790" y="736" width="176" height="298" as="geometry" />
        </mxCell>
        <mxCell id="YLkNIvoXxTKitFG9mxhY-153" value="" style="whiteSpace=wrap;html=1;aspect=fixed;fontSize=8;fillColor=#d5e8d4;strokeColor=#82b366;" parent="1" vertex="1">
          <mxGeometry x="-734" y="751" width="50" height="50" as="geometry" />
        </mxCell>
        <mxCell id="YLkNIvoXxTKitFG9mxhY-154" value="" style="whiteSpace=wrap;html=1;aspect=fixed;fontSize=8;fillColor=#d5e8d4;strokeColor=#82b366;" parent="1" vertex="1">
          <mxGeometry x="-732.25" y="971" width="50" height="50" as="geometry" />
        </mxCell>
        <mxCell id="YLkNIvoXxTKitFG9mxhY-155" value="&lt;font style=&quot;font-size: 12px&quot;&gt;&lt;b&gt;LSTM&lt;/b&gt;&lt;/font&gt;" style="whiteSpace=wrap;html=1;aspect=fixed;fontSize=8;fillColor=default;" parent="1" vertex="1">
          <mxGeometry x="-771.25" y="841" width="50" height="50" as="geometry" />
        </mxCell>
        <mxCell id="YLkNIvoXxTKitFG9mxhY-156" value="" style="whiteSpace=wrap;html=1;aspect=fixed;fontSize=8;fillColor=default;" parent="1" vertex="1">
          <mxGeometry x="-682.25" y="871" width="50" height="50" as="geometry" />
        </mxCell>
        <mxCell id="YLkNIvoXxTKitFG9mxhY-157" value="" style="endArrow=classic;html=1;rounded=0;fontSize=8;entryX=0.25;entryY=1;entryDx=0;entryDy=0;exitX=0.5;exitY=0;exitDx=0;exitDy=0;" parent="1" source="YLkNIvoXxTKitFG9mxhY-155" target="YLkNIvoXxTKitFG9mxhY-153" edge="1">
          <mxGeometry width="50" height="50" relative="1" as="geometry">
            <mxPoint x="-721" y="797" as="sourcePoint" />
            <mxPoint x="-380" y="812" as="targetPoint" />
          </mxGeometry>
        </mxCell>
        <mxCell id="YLkNIvoXxTKitFG9mxhY-158" value="" style="endArrow=classic;html=1;rounded=0;fontSize=8;entryX=0.75;entryY=1;entryDx=0;entryDy=0;exitX=0.5;exitY=0;exitDx=0;exitDy=0;" parent="1" source="YLkNIvoXxTKitFG9mxhY-156" target="YLkNIvoXxTKitFG9mxhY-153" edge="1">
          <mxGeometry width="50" height="50" relative="1" as="geometry">
            <mxPoint x="-736.25" y="851" as="sourcePoint" />
            <mxPoint x="-711.5" y="811" as="targetPoint" />
          </mxGeometry>
        </mxCell>
        <mxCell id="YLkNIvoXxTKitFG9mxhY-159" value="" style="endArrow=classic;html=1;rounded=0;fontSize=8;entryX=0.5;entryY=1;entryDx=0;entryDy=0;exitX=0.75;exitY=0;exitDx=0;exitDy=0;" parent="1" source="YLkNIvoXxTKitFG9mxhY-154" target="YLkNIvoXxTKitFG9mxhY-156" edge="1">
          <mxGeometry width="50" height="50" relative="1" as="geometry">
            <mxPoint x="-635" y="941" as="sourcePoint" />
            <mxPoint x="-380" y="812" as="targetPoint" />
          </mxGeometry>
        </mxCell>
        <mxCell id="YLkNIvoXxTKitFG9mxhY-160" value="" style="endArrow=classic;html=1;rounded=0;fontSize=8;entryX=0.5;entryY=1;entryDx=0;entryDy=0;exitX=0.25;exitY=0;exitDx=0;exitDy=0;" parent="1" source="YLkNIvoXxTKitFG9mxhY-154" target="YLkNIvoXxTKitFG9mxhY-155" edge="1">
          <mxGeometry width="50" height="50" relative="1" as="geometry">
            <mxPoint x="-684.75" y="981" as="sourcePoint" />
            <mxPoint x="-647.25" y="931" as="targetPoint" />
          </mxGeometry>
        </mxCell>
        <mxCell id="YLkNIvoXxTKitFG9mxhY-161" value="" style="rounded=0;whiteSpace=wrap;html=1;fontSize=8;fillColor=default;" parent="1" vertex="1">
          <mxGeometry x="-540" y="736" width="176" height="298" as="geometry" />
        </mxCell>
        <mxCell id="YLkNIvoXxTKitFG9mxhY-162" value="" style="whiteSpace=wrap;html=1;aspect=fixed;fontSize=8;fillColor=#d5e8d4;strokeColor=#82b366;" parent="1" vertex="1">
          <mxGeometry x="-484" y="751" width="50" height="50" as="geometry" />
        </mxCell>
        <mxCell id="YLkNIvoXxTKitFG9mxhY-163" value="" style="whiteSpace=wrap;html=1;aspect=fixed;fontSize=8;fillColor=#d5e8d4;strokeColor=#82b366;" parent="1" vertex="1">
          <mxGeometry x="-482.25" y="971" width="50" height="50" as="geometry" />
        </mxCell>
        <mxCell id="YLkNIvoXxTKitFG9mxhY-164" value="" style="whiteSpace=wrap;html=1;aspect=fixed;fontSize=8;fillColor=default;" parent="1" vertex="1">
          <mxGeometry x="-521.25" y="841" width="50" height="50" as="geometry" />
        </mxCell>
        <mxCell id="YLkNIvoXxTKitFG9mxhY-165" value="" style="whiteSpace=wrap;html=1;aspect=fixed;fontSize=8;fillColor=default;" parent="1" vertex="1">
          <mxGeometry x="-432.25" y="871" width="50" height="50" as="geometry" />
        </mxCell>
        <mxCell id="YLkNIvoXxTKitFG9mxhY-166" value="" style="endArrow=classic;html=1;rounded=0;fontSize=8;entryX=0.25;entryY=1;entryDx=0;entryDy=0;exitX=0.5;exitY=0;exitDx=0;exitDy=0;" parent="1" source="YLkNIvoXxTKitFG9mxhY-164" target="YLkNIvoXxTKitFG9mxhY-162" edge="1">
          <mxGeometry width="50" height="50" relative="1" as="geometry">
            <mxPoint x="-471" y="797" as="sourcePoint" />
            <mxPoint x="-130" y="812" as="targetPoint" />
          </mxGeometry>
        </mxCell>
        <mxCell id="YLkNIvoXxTKitFG9mxhY-167" value="" style="endArrow=classic;html=1;rounded=0;fontSize=8;entryX=0.75;entryY=1;entryDx=0;entryDy=0;exitX=0.5;exitY=0;exitDx=0;exitDy=0;" parent="1" source="YLkNIvoXxTKitFG9mxhY-165" target="YLkNIvoXxTKitFG9mxhY-162" edge="1">
          <mxGeometry width="50" height="50" relative="1" as="geometry">
            <mxPoint x="-486.25" y="851" as="sourcePoint" />
            <mxPoint x="-461.5" y="811" as="targetPoint" />
          </mxGeometry>
        </mxCell>
        <mxCell id="YLkNIvoXxTKitFG9mxhY-168" value="" style="endArrow=classic;html=1;rounded=0;fontSize=8;entryX=0.5;entryY=1;entryDx=0;entryDy=0;exitX=0.75;exitY=0;exitDx=0;exitDy=0;" parent="1" source="YLkNIvoXxTKitFG9mxhY-163" target="YLkNIvoXxTKitFG9mxhY-165" edge="1">
          <mxGeometry width="50" height="50" relative="1" as="geometry">
            <mxPoint x="-385" y="941" as="sourcePoint" />
            <mxPoint x="-130" y="812" as="targetPoint" />
          </mxGeometry>
        </mxCell>
        <mxCell id="YLkNIvoXxTKitFG9mxhY-169" value="" style="endArrow=classic;html=1;rounded=0;fontSize=8;entryX=0.5;entryY=1;entryDx=0;entryDy=0;exitX=0.25;exitY=0;exitDx=0;exitDy=0;" parent="1" source="YLkNIvoXxTKitFG9mxhY-163" target="YLkNIvoXxTKitFG9mxhY-164" edge="1">
          <mxGeometry width="50" height="50" relative="1" as="geometry">
            <mxPoint x="-434.75" y="981" as="sourcePoint" />
            <mxPoint x="-397.25" y="931" as="targetPoint" />
          </mxGeometry>
        </mxCell>
        <mxCell id="YLkNIvoXxTKitFG9mxhY-170" value="" style="rounded=0;whiteSpace=wrap;html=1;fontSize=8;fillColor=default;" parent="1" vertex="1">
          <mxGeometry x="-290" y="736" width="176" height="298" as="geometry" />
        </mxCell>
        <mxCell id="YLkNIvoXxTKitFG9mxhY-171" value="" style="whiteSpace=wrap;html=1;aspect=fixed;fontSize=8;fillColor=#d5e8d4;strokeColor=#82b366;" parent="1" vertex="1">
          <mxGeometry x="-234" y="751" width="50" height="50" as="geometry" />
        </mxCell>
        <mxCell id="YLkNIvoXxTKitFG9mxhY-172" value="" style="whiteSpace=wrap;html=1;aspect=fixed;fontSize=8;fillColor=#d5e8d4;strokeColor=#82b366;" parent="1" vertex="1">
          <mxGeometry x="-232.25" y="971" width="50" height="50" as="geometry" />
        </mxCell>
        <mxCell id="YLkNIvoXxTKitFG9mxhY-173" value="" style="whiteSpace=wrap;html=1;aspect=fixed;fontSize=8;fillColor=default;" parent="1" vertex="1">
          <mxGeometry x="-271.25" y="841" width="50" height="50" as="geometry" />
        </mxCell>
        <mxCell id="YLkNIvoXxTKitFG9mxhY-174" value="" style="whiteSpace=wrap;html=1;aspect=fixed;fontSize=8;fillColor=default;" parent="1" vertex="1">
          <mxGeometry x="-182.25" y="871" width="50" height="50" as="geometry" />
        </mxCell>
        <mxCell id="YLkNIvoXxTKitFG9mxhY-175" value="" style="endArrow=classic;html=1;rounded=0;fontSize=8;entryX=0.25;entryY=1;entryDx=0;entryDy=0;exitX=0.5;exitY=0;exitDx=0;exitDy=0;" parent="1" source="YLkNIvoXxTKitFG9mxhY-173" target="YLkNIvoXxTKitFG9mxhY-171" edge="1">
          <mxGeometry width="50" height="50" relative="1" as="geometry">
            <mxPoint x="-221" y="797" as="sourcePoint" />
            <mxPoint x="120" y="812" as="targetPoint" />
          </mxGeometry>
        </mxCell>
        <mxCell id="YLkNIvoXxTKitFG9mxhY-176" value="" style="endArrow=classic;html=1;rounded=0;fontSize=8;entryX=0.75;entryY=1;entryDx=0;entryDy=0;exitX=0.5;exitY=0;exitDx=0;exitDy=0;" parent="1" source="YLkNIvoXxTKitFG9mxhY-174" target="YLkNIvoXxTKitFG9mxhY-171" edge="1">
          <mxGeometry width="50" height="50" relative="1" as="geometry">
            <mxPoint x="-236.25" y="851" as="sourcePoint" />
            <mxPoint x="-211.5" y="811" as="targetPoint" />
          </mxGeometry>
        </mxCell>
        <mxCell id="YLkNIvoXxTKitFG9mxhY-177" value="" style="endArrow=classic;html=1;rounded=0;fontSize=8;entryX=0.5;entryY=1;entryDx=0;entryDy=0;exitX=0.75;exitY=0;exitDx=0;exitDy=0;" parent="1" source="YLkNIvoXxTKitFG9mxhY-172" target="YLkNIvoXxTKitFG9mxhY-174" edge="1">
          <mxGeometry width="50" height="50" relative="1" as="geometry">
            <mxPoint x="-135" y="941" as="sourcePoint" />
            <mxPoint x="120" y="812" as="targetPoint" />
          </mxGeometry>
        </mxCell>
        <mxCell id="YLkNIvoXxTKitFG9mxhY-178" value="" style="endArrow=classic;html=1;rounded=0;fontSize=8;entryX=0.5;entryY=1;entryDx=0;entryDy=0;exitX=0.25;exitY=0;exitDx=0;exitDy=0;" parent="1" source="YLkNIvoXxTKitFG9mxhY-172" target="YLkNIvoXxTKitFG9mxhY-173" edge="1">
          <mxGeometry width="50" height="50" relative="1" as="geometry">
            <mxPoint x="-184.75" y="981" as="sourcePoint" />
            <mxPoint x="-147.25" y="931" as="targetPoint" />
          </mxGeometry>
        </mxCell>
        <mxCell id="YLkNIvoXxTKitFG9mxhY-179" value="" style="endArrow=classic;html=1;rounded=0;fontSize=8;entryX=0;entryY=0.5;entryDx=0;entryDy=0;" parent="1" target="YLkNIvoXxTKitFG9mxhY-155" edge="1">
          <mxGeometry width="50" height="50" relative="1" as="geometry">
            <mxPoint x="-818" y="865.9999999999998" as="sourcePoint" />
            <mxPoint x="-380" y="812" as="targetPoint" />
          </mxGeometry>
        </mxCell>
        <mxCell id="YLkNIvoXxTKitFG9mxhY-180" value="" style="endArrow=classic;html=1;rounded=0;fontSize=8;entryX=0;entryY=0.5;entryDx=0;entryDy=0;exitX=1;exitY=0.5;exitDx=0;exitDy=0;" parent="1" source="YLkNIvoXxTKitFG9mxhY-155" target="YLkNIvoXxTKitFG9mxhY-164" edge="1">
          <mxGeometry width="50" height="50" relative="1" as="geometry">
            <mxPoint x="-856" y="876" as="sourcePoint" />
            <mxPoint x="-761.25" y="876" as="targetPoint" />
          </mxGeometry>
        </mxCell>
        <mxCell id="YLkNIvoXxTKitFG9mxhY-181" value="" style="endArrow=classic;html=1;rounded=0;fontSize=8;entryX=0;entryY=0.5;entryDx=0;entryDy=0;exitX=1;exitY=0.5;exitDx=0;exitDy=0;" parent="1" edge="1">
          <mxGeometry width="50" height="50" relative="1" as="geometry">
            <mxPoint x="-471.25" y="865.5" as="sourcePoint" />
            <mxPoint x="-271.25" y="865.5" as="targetPoint" />
          </mxGeometry>
        </mxCell>
        <mxCell id="YLkNIvoXxTKitFG9mxhY-182" value="" style="endArrow=classic;html=1;rounded=0;fontSize=8;exitX=1;exitY=0.5;exitDx=0;exitDy=0;" parent="1" source="YLkNIvoXxTKitFG9mxhY-173" edge="1">
          <mxGeometry width="50" height="50" relative="1" as="geometry">
            <mxPoint x="-221.25" y="865.5" as="sourcePoint" />
            <mxPoint x="-94" y="863" as="targetPoint" />
          </mxGeometry>
        </mxCell>
        <mxCell id="YLkNIvoXxTKitFG9mxhY-183" value="" style="endArrow=classic;html=1;rounded=0;fontSize=8;entryX=1;entryY=0.5;entryDx=0;entryDy=0;" parent="1" target="YLkNIvoXxTKitFG9mxhY-174" edge="1">
          <mxGeometry width="50" height="50" relative="1" as="geometry">
            <mxPoint x="-94" y="895.9999999999998" as="sourcePoint" />
            <mxPoint x="-380" y="812" as="targetPoint" />
          </mxGeometry>
        </mxCell>
        <mxCell id="YLkNIvoXxTKitFG9mxhY-184" value="" style="endArrow=classic;html=1;rounded=0;fontSize=8;exitX=0;exitY=0.5;exitDx=0;exitDy=0;entryX=1;entryY=0.5;entryDx=0;entryDy=0;" parent="1" source="YLkNIvoXxTKitFG9mxhY-174" target="YLkNIvoXxTKitFG9mxhY-165" edge="1">
          <mxGeometry width="50" height="50" relative="1" as="geometry">
            <mxPoint x="-430" y="862" as="sourcePoint" />
            <mxPoint x="-380" y="812" as="targetPoint" />
          </mxGeometry>
        </mxCell>
        <mxCell id="YLkNIvoXxTKitFG9mxhY-185" value="" style="endArrow=classic;html=1;rounded=0;fontSize=8;exitX=0;exitY=0.5;exitDx=0;exitDy=0;entryX=1;entryY=0.5;entryDx=0;entryDy=0;" parent="1" edge="1">
          <mxGeometry width="50" height="50" relative="1" as="geometry">
            <mxPoint x="-432.25" y="895.9999999999998" as="sourcePoint" />
            <mxPoint x="-632.25" y="895.9999999999998" as="targetPoint" />
          </mxGeometry>
        </mxCell>
        <mxCell id="YLkNIvoXxTKitFG9mxhY-186" value="" style="endArrow=classic;html=1;rounded=0;fontSize=8;exitX=0;exitY=0.5;exitDx=0;exitDy=0;" parent="1" edge="1">
          <mxGeometry width="50" height="50" relative="1" as="geometry">
            <mxPoint x="-682.25" y="895.9999999999998" as="sourcePoint" />
            <mxPoint x="-816" y="895.9999999999998" as="targetPoint" />
          </mxGeometry>
        </mxCell>
        <mxCell id="YLkNIvoXxTKitFG9mxhY-187" value="&lt;font style=&quot;font-size: 12px&quot;&gt;Forward States&lt;/font&gt;" style="text;html=1;strokeColor=none;fillColor=none;align=center;verticalAlign=middle;whiteSpace=wrap;rounded=0;fontSize=8;" parent="1" vertex="1">
          <mxGeometry x="-845" y="832" width="60" height="30" as="geometry" />
        </mxCell>
        <mxCell id="YLkNIvoXxTKitFG9mxhY-188" value="&lt;font style=&quot;font-size: 12px&quot;&gt;Backward States&lt;/font&gt;" style="text;html=1;strokeColor=none;fillColor=none;align=center;verticalAlign=middle;whiteSpace=wrap;rounded=0;fontSize=8;" parent="1" vertex="1">
          <mxGeometry x="-850" y="902" width="60" height="30" as="geometry" />
        </mxCell>
        <mxCell id="YLkNIvoXxTKitFG9mxhY-189" value="&lt;font style=&quot;font-size: 14px&quot;&gt;t - 1&lt;/font&gt;" style="text;html=1;strokeColor=#82b366;fillColor=none;align=center;verticalAlign=middle;whiteSpace=wrap;rounded=0;fontSize=12;" parent="1" vertex="1">
          <mxGeometry x="-676.25" y="738" width="60" height="30" as="geometry" />
        </mxCell>
        <mxCell id="YLkNIvoXxTKitFG9mxhY-190" value="&lt;font style=&quot;font-size: 14px&quot;&gt;t&lt;/font&gt;" style="text;html=1;strokeColor=#82b366;fillColor=none;align=center;verticalAlign=middle;whiteSpace=wrap;rounded=0;fontSize=12;" parent="1" vertex="1">
          <mxGeometry x="-426.25" y="738" width="60" height="30" as="geometry" />
        </mxCell>
        <mxCell id="YLkNIvoXxTKitFG9mxhY-191" value="&lt;font style=&quot;font-size: 14px&quot;&gt;t + 1&lt;/font&gt;" style="text;html=1;strokeColor=#82b366;fillColor=none;align=center;verticalAlign=middle;whiteSpace=wrap;rounded=0;fontSize=12;" parent="1" vertex="1">
          <mxGeometry x="-176.25" y="738" width="60" height="30" as="geometry" />
        </mxCell>
        <mxCell id="YLkNIvoXxTKitFG9mxhY-192" value="&lt;font style=&quot;font-size: 12px&quot;&gt;&lt;b&gt;LSTM&lt;/b&gt;&lt;/font&gt;" style="whiteSpace=wrap;html=1;aspect=fixed;fontSize=8;fillColor=default;" parent="1" vertex="1">
          <mxGeometry x="-682.25" y="871" width="50" height="50" as="geometry" />
        </mxCell>
        <mxCell id="YLkNIvoXxTKitFG9mxhY-193" value="&lt;font style=&quot;font-size: 12px&quot;&gt;&lt;b&gt;LSTM&lt;/b&gt;&lt;/font&gt;" style="whiteSpace=wrap;html=1;aspect=fixed;fontSize=8;fillColor=default;" parent="1" vertex="1">
          <mxGeometry x="-521.25" y="841" width="50" height="50" as="geometry" />
        </mxCell>
        <mxCell id="YLkNIvoXxTKitFG9mxhY-194" value="&lt;font style=&quot;font-size: 12px&quot;&gt;&lt;b&gt;LSTM&lt;/b&gt;&lt;/font&gt;" style="whiteSpace=wrap;html=1;aspect=fixed;fontSize=8;fillColor=default;" parent="1" vertex="1">
          <mxGeometry x="-432.25" y="871" width="50" height="50" as="geometry" />
        </mxCell>
        <mxCell id="YLkNIvoXxTKitFG9mxhY-195" value="&lt;font style=&quot;font-size: 12px&quot;&gt;&lt;b&gt;LSTM&lt;/b&gt;&lt;/font&gt;" style="whiteSpace=wrap;html=1;aspect=fixed;fontSize=8;fillColor=default;" parent="1" vertex="1">
          <mxGeometry x="-271.25" y="841" width="50" height="50" as="geometry" />
        </mxCell>
        <mxCell id="YLkNIvoXxTKitFG9mxhY-196" value="&lt;b style=&quot;font-size: 12px&quot;&gt;RNN&lt;/b&gt;" style="whiteSpace=wrap;html=1;aspect=fixed;fontSize=8;fillColor=default;" parent="1" vertex="1">
          <mxGeometry x="-182.25" y="871" width="50" height="50" as="geometry" />
        </mxCell>
        <mxCell id="YLkNIvoXxTKitFG9mxhY-197" value="&lt;font style=&quot;font-size: 12px&quot;&gt;&lt;b&gt;RNN&lt;/b&gt;&lt;/font&gt;" style="whiteSpace=wrap;html=1;aspect=fixed;fontSize=8;fillColor=default;" parent="1" vertex="1">
          <mxGeometry x="-771.25" y="841" width="50" height="50" as="geometry" />
        </mxCell>
        <mxCell id="YLkNIvoXxTKitFG9mxhY-198" value="&lt;b style=&quot;font-size: 12px&quot;&gt;RNN&lt;/b&gt;" style="whiteSpace=wrap;html=1;aspect=fixed;fontSize=8;fillColor=default;" parent="1" vertex="1">
          <mxGeometry x="-682.25" y="871" width="50" height="50" as="geometry" />
        </mxCell>
        <mxCell id="YLkNIvoXxTKitFG9mxhY-199" value="&lt;b style=&quot;font-size: 12px&quot;&gt;RNN&lt;/b&gt;" style="whiteSpace=wrap;html=1;aspect=fixed;fontSize=8;fillColor=default;" parent="1" vertex="1">
          <mxGeometry x="-521.25" y="841" width="50" height="50" as="geometry" />
        </mxCell>
        <mxCell id="YLkNIvoXxTKitFG9mxhY-200" value="&lt;b style=&quot;font-size: 12px&quot;&gt;RNN&lt;/b&gt;" style="whiteSpace=wrap;html=1;aspect=fixed;fontSize=8;fillColor=default;" parent="1" vertex="1">
          <mxGeometry x="-432.25" y="871" width="50" height="50" as="geometry" />
        </mxCell>
        <mxCell id="YLkNIvoXxTKitFG9mxhY-201" value="&lt;b style=&quot;font-size: 12px&quot;&gt;RNN&lt;/b&gt;" style="whiteSpace=wrap;html=1;aspect=fixed;fontSize=8;fillColor=default;" parent="1" vertex="1">
          <mxGeometry x="-271.25" y="841" width="50" height="50" as="geometry" />
        </mxCell>
        <mxCell id="YLkNIvoXxTKitFG9mxhY-202" value="&lt;font style=&quot;font-size: 17px&quot;&gt;&lt;b&gt;(a)&lt;/b&gt;&lt;/font&gt;" style="text;html=1;strokeColor=none;fillColor=none;align=center;verticalAlign=middle;whiteSpace=wrap;rounded=0;fontSize=12;" parent="1" vertex="1">
          <mxGeometry x="-488" y="1041" width="60" height="30" as="geometry" />
        </mxCell>
        <mxCell id="YLkNIvoXxTKitFG9mxhY-203" value="&lt;font style=&quot;font-size: 17px&quot;&gt;&lt;b&gt;(b)&lt;/b&gt;&lt;/font&gt;" style="text;html=1;strokeColor=none;fillColor=none;align=center;verticalAlign=middle;whiteSpace=wrap;rounded=0;fontSize=12;" parent="1" vertex="1">
          <mxGeometry x="-492.25" y="1459" width="60" height="30" as="geometry" />
        </mxCell>
        <mxCell id="kbP_s4C83WphCyXS9vk1-1" value="" style="rounded=0;whiteSpace=wrap;html=1;fontSize=8;fillColor=default;" parent="1" vertex="1">
          <mxGeometry x="-785" y="1139" width="176" height="298" as="geometry" />
        </mxCell>
        <mxCell id="kbP_s4C83WphCyXS9vk1-2" value="" style="whiteSpace=wrap;html=1;aspect=fixed;fontSize=8;fillColor=#fff2cc;strokeColor=#d6b656;" parent="1" vertex="1">
          <mxGeometry x="-729" y="1154" width="50" height="50" as="geometry" />
        </mxCell>
        <mxCell id="kbP_s4C83WphCyXS9vk1-3" value="" style="whiteSpace=wrap;html=1;aspect=fixed;fontSize=8;fillColor=#fff2cc;strokeColor=#d6b656;" parent="1" vertex="1">
          <mxGeometry x="-727.25" y="1374" width="50" height="50" as="geometry" />
        </mxCell>
        <mxCell id="kbP_s4C83WphCyXS9vk1-4" value="&lt;font style=&quot;font-size: 12px&quot;&gt;&lt;b&gt;LSTM&lt;/b&gt;&lt;/font&gt;" style="whiteSpace=wrap;html=1;aspect=fixed;fontSize=8;fillColor=default;" parent="1" vertex="1">
          <mxGeometry x="-766.25" y="1244" width="50" height="50" as="geometry" />
        </mxCell>
        <mxCell id="kbP_s4C83WphCyXS9vk1-5" value="" style="whiteSpace=wrap;html=1;aspect=fixed;fontSize=8;fillColor=default;" parent="1" vertex="1">
          <mxGeometry x="-677.25" y="1274" width="50" height="50" as="geometry" />
        </mxCell>
        <mxCell id="kbP_s4C83WphCyXS9vk1-6" value="" style="endArrow=classic;html=1;rounded=0;fontSize=8;entryX=0.25;entryY=1;entryDx=0;entryDy=0;exitX=0.5;exitY=0;exitDx=0;exitDy=0;" parent="1" source="kbP_s4C83WphCyXS9vk1-4" target="kbP_s4C83WphCyXS9vk1-2" edge="1">
          <mxGeometry width="50" height="50" relative="1" as="geometry">
            <mxPoint x="-716" y="1200" as="sourcePoint" />
            <mxPoint x="-375" y="1215" as="targetPoint" />
          </mxGeometry>
        </mxCell>
        <mxCell id="kbP_s4C83WphCyXS9vk1-7" value="" style="endArrow=classic;html=1;rounded=0;fontSize=8;entryX=0.75;entryY=1;entryDx=0;entryDy=0;exitX=0.5;exitY=0;exitDx=0;exitDy=0;" parent="1" source="kbP_s4C83WphCyXS9vk1-5" target="kbP_s4C83WphCyXS9vk1-2" edge="1">
          <mxGeometry width="50" height="50" relative="1" as="geometry">
            <mxPoint x="-731.25" y="1254" as="sourcePoint" />
            <mxPoint x="-706.5" y="1214" as="targetPoint" />
          </mxGeometry>
        </mxCell>
        <mxCell id="kbP_s4C83WphCyXS9vk1-8" value="" style="endArrow=classic;html=1;rounded=0;fontSize=8;entryX=0.5;entryY=1;entryDx=0;entryDy=0;exitX=0.75;exitY=0;exitDx=0;exitDy=0;" parent="1" source="kbP_s4C83WphCyXS9vk1-3" target="kbP_s4C83WphCyXS9vk1-5" edge="1">
          <mxGeometry width="50" height="50" relative="1" as="geometry">
            <mxPoint x="-630" y="1344" as="sourcePoint" />
            <mxPoint x="-375" y="1215" as="targetPoint" />
          </mxGeometry>
        </mxCell>
        <mxCell id="kbP_s4C83WphCyXS9vk1-9" value="" style="endArrow=classic;html=1;rounded=0;fontSize=8;entryX=0.5;entryY=1;entryDx=0;entryDy=0;exitX=0.25;exitY=0;exitDx=0;exitDy=0;" parent="1" source="kbP_s4C83WphCyXS9vk1-3" target="kbP_s4C83WphCyXS9vk1-4" edge="1">
          <mxGeometry width="50" height="50" relative="1" as="geometry">
            <mxPoint x="-679.75" y="1384" as="sourcePoint" />
            <mxPoint x="-642.25" y="1334" as="targetPoint" />
          </mxGeometry>
        </mxCell>
        <mxCell id="kbP_s4C83WphCyXS9vk1-10" value="" style="rounded=0;whiteSpace=wrap;html=1;fontSize=8;fillColor=default;" parent="1" vertex="1">
          <mxGeometry x="-535" y="1139" width="176" height="298" as="geometry" />
        </mxCell>
        <mxCell id="kbP_s4C83WphCyXS9vk1-11" value="" style="whiteSpace=wrap;html=1;aspect=fixed;fontSize=8;fillColor=#fff2cc;strokeColor=#d6b656;" parent="1" vertex="1">
          <mxGeometry x="-479" y="1154" width="50" height="50" as="geometry" />
        </mxCell>
        <mxCell id="kbP_s4C83WphCyXS9vk1-12" value="" style="whiteSpace=wrap;html=1;aspect=fixed;fontSize=8;fillColor=#fff2cc;strokeColor=#d6b656;" parent="1" vertex="1">
          <mxGeometry x="-477.25" y="1374" width="50" height="50" as="geometry" />
        </mxCell>
        <mxCell id="kbP_s4C83WphCyXS9vk1-13" value="" style="whiteSpace=wrap;html=1;aspect=fixed;fontSize=8;fillColor=default;" parent="1" vertex="1">
          <mxGeometry x="-516.25" y="1244" width="50" height="50" as="geometry" />
        </mxCell>
        <mxCell id="kbP_s4C83WphCyXS9vk1-14" value="" style="whiteSpace=wrap;html=1;aspect=fixed;fontSize=8;fillColor=default;" parent="1" vertex="1">
          <mxGeometry x="-427.25" y="1274" width="50" height="50" as="geometry" />
        </mxCell>
        <mxCell id="kbP_s4C83WphCyXS9vk1-15" value="" style="endArrow=classic;html=1;rounded=0;fontSize=8;entryX=0.25;entryY=1;entryDx=0;entryDy=0;exitX=0.5;exitY=0;exitDx=0;exitDy=0;" parent="1" source="kbP_s4C83WphCyXS9vk1-13" target="kbP_s4C83WphCyXS9vk1-11" edge="1">
          <mxGeometry width="50" height="50" relative="1" as="geometry">
            <mxPoint x="-466" y="1200" as="sourcePoint" />
            <mxPoint x="-125" y="1215" as="targetPoint" />
          </mxGeometry>
        </mxCell>
        <mxCell id="kbP_s4C83WphCyXS9vk1-16" value="" style="endArrow=classic;html=1;rounded=0;fontSize=8;entryX=0.75;entryY=1;entryDx=0;entryDy=0;exitX=0.5;exitY=0;exitDx=0;exitDy=0;" parent="1" source="kbP_s4C83WphCyXS9vk1-14" target="kbP_s4C83WphCyXS9vk1-11" edge="1">
          <mxGeometry width="50" height="50" relative="1" as="geometry">
            <mxPoint x="-481.25" y="1254" as="sourcePoint" />
            <mxPoint x="-456.5" y="1214" as="targetPoint" />
          </mxGeometry>
        </mxCell>
        <mxCell id="kbP_s4C83WphCyXS9vk1-17" value="" style="endArrow=classic;html=1;rounded=0;fontSize=8;entryX=0.5;entryY=1;entryDx=0;entryDy=0;exitX=0.75;exitY=0;exitDx=0;exitDy=0;" parent="1" source="kbP_s4C83WphCyXS9vk1-12" target="kbP_s4C83WphCyXS9vk1-14" edge="1">
          <mxGeometry width="50" height="50" relative="1" as="geometry">
            <mxPoint x="-380" y="1344" as="sourcePoint" />
            <mxPoint x="-125" y="1215" as="targetPoint" />
          </mxGeometry>
        </mxCell>
        <mxCell id="kbP_s4C83WphCyXS9vk1-18" value="" style="endArrow=classic;html=1;rounded=0;fontSize=8;entryX=0.5;entryY=1;entryDx=0;entryDy=0;exitX=0.25;exitY=0;exitDx=0;exitDy=0;" parent="1" source="kbP_s4C83WphCyXS9vk1-12" target="kbP_s4C83WphCyXS9vk1-13" edge="1">
          <mxGeometry width="50" height="50" relative="1" as="geometry">
            <mxPoint x="-429.75" y="1384" as="sourcePoint" />
            <mxPoint x="-392.25" y="1334" as="targetPoint" />
          </mxGeometry>
        </mxCell>
        <mxCell id="kbP_s4C83WphCyXS9vk1-19" value="" style="rounded=0;whiteSpace=wrap;html=1;fontSize=8;fillColor=default;" parent="1" vertex="1">
          <mxGeometry x="-285" y="1139" width="176" height="298" as="geometry" />
        </mxCell>
        <mxCell id="kbP_s4C83WphCyXS9vk1-20" value="" style="whiteSpace=wrap;html=1;aspect=fixed;fontSize=8;fillColor=#fff2cc;strokeColor=#d6b656;" parent="1" vertex="1">
          <mxGeometry x="-229" y="1154" width="50" height="50" as="geometry" />
        </mxCell>
        <mxCell id="kbP_s4C83WphCyXS9vk1-21" value="" style="whiteSpace=wrap;html=1;aspect=fixed;fontSize=8;fillColor=#fff2cc;strokeColor=#d6b656;" parent="1" vertex="1">
          <mxGeometry x="-227.25" y="1374" width="50" height="50" as="geometry" />
        </mxCell>
        <mxCell id="kbP_s4C83WphCyXS9vk1-22" value="" style="whiteSpace=wrap;html=1;aspect=fixed;fontSize=8;fillColor=default;" parent="1" vertex="1">
          <mxGeometry x="-266.25" y="1244" width="50" height="50" as="geometry" />
        </mxCell>
        <mxCell id="kbP_s4C83WphCyXS9vk1-23" value="" style="whiteSpace=wrap;html=1;aspect=fixed;fontSize=8;fillColor=default;" parent="1" vertex="1">
          <mxGeometry x="-177.25" y="1274" width="50" height="50" as="geometry" />
        </mxCell>
        <mxCell id="kbP_s4C83WphCyXS9vk1-24" value="" style="endArrow=classic;html=1;rounded=0;fontSize=8;entryX=0.25;entryY=1;entryDx=0;entryDy=0;exitX=0.5;exitY=0;exitDx=0;exitDy=0;" parent="1" source="kbP_s4C83WphCyXS9vk1-22" target="kbP_s4C83WphCyXS9vk1-20" edge="1">
          <mxGeometry width="50" height="50" relative="1" as="geometry">
            <mxPoint x="-216" y="1200" as="sourcePoint" />
            <mxPoint x="125" y="1215" as="targetPoint" />
          </mxGeometry>
        </mxCell>
        <mxCell id="kbP_s4C83WphCyXS9vk1-25" value="" style="endArrow=classic;html=1;rounded=0;fontSize=8;entryX=0.75;entryY=1;entryDx=0;entryDy=0;exitX=0.5;exitY=0;exitDx=0;exitDy=0;" parent="1" source="kbP_s4C83WphCyXS9vk1-23" target="kbP_s4C83WphCyXS9vk1-20" edge="1">
          <mxGeometry width="50" height="50" relative="1" as="geometry">
            <mxPoint x="-231.25" y="1254" as="sourcePoint" />
            <mxPoint x="-206.5" y="1214" as="targetPoint" />
          </mxGeometry>
        </mxCell>
        <mxCell id="kbP_s4C83WphCyXS9vk1-26" value="" style="endArrow=classic;html=1;rounded=0;fontSize=8;entryX=0.5;entryY=1;entryDx=0;entryDy=0;exitX=0.75;exitY=0;exitDx=0;exitDy=0;" parent="1" source="kbP_s4C83WphCyXS9vk1-21" target="kbP_s4C83WphCyXS9vk1-23" edge="1">
          <mxGeometry width="50" height="50" relative="1" as="geometry">
            <mxPoint x="-130" y="1344" as="sourcePoint" />
            <mxPoint x="125" y="1215" as="targetPoint" />
          </mxGeometry>
        </mxCell>
        <mxCell id="kbP_s4C83WphCyXS9vk1-27" value="" style="endArrow=classic;html=1;rounded=0;fontSize=8;entryX=0.5;entryY=1;entryDx=0;entryDy=0;exitX=0.25;exitY=0;exitDx=0;exitDy=0;" parent="1" source="kbP_s4C83WphCyXS9vk1-21" target="kbP_s4C83WphCyXS9vk1-22" edge="1">
          <mxGeometry width="50" height="50" relative="1" as="geometry">
            <mxPoint x="-179.75" y="1384" as="sourcePoint" />
            <mxPoint x="-142.25" y="1334" as="targetPoint" />
          </mxGeometry>
        </mxCell>
        <mxCell id="kbP_s4C83WphCyXS9vk1-28" value="" style="endArrow=classic;html=1;rounded=0;fontSize=8;entryX=0;entryY=0.5;entryDx=0;entryDy=0;" parent="1" target="kbP_s4C83WphCyXS9vk1-4" edge="1">
          <mxGeometry width="50" height="50" relative="1" as="geometry">
            <mxPoint x="-813" y="1269" as="sourcePoint" />
            <mxPoint x="-375" y="1215" as="targetPoint" />
          </mxGeometry>
        </mxCell>
        <mxCell id="kbP_s4C83WphCyXS9vk1-29" value="" style="endArrow=classic;html=1;rounded=0;fontSize=8;entryX=0;entryY=0.5;entryDx=0;entryDy=0;exitX=1;exitY=0.5;exitDx=0;exitDy=0;" parent="1" source="kbP_s4C83WphCyXS9vk1-4" target="kbP_s4C83WphCyXS9vk1-13" edge="1">
          <mxGeometry width="50" height="50" relative="1" as="geometry">
            <mxPoint x="-851" y="1279" as="sourcePoint" />
            <mxPoint x="-756.25" y="1279" as="targetPoint" />
          </mxGeometry>
        </mxCell>
        <mxCell id="kbP_s4C83WphCyXS9vk1-30" value="" style="endArrow=classic;html=1;rounded=0;fontSize=8;entryX=0;entryY=0.5;entryDx=0;entryDy=0;exitX=1;exitY=0.5;exitDx=0;exitDy=0;" parent="1" edge="1">
          <mxGeometry width="50" height="50" relative="1" as="geometry">
            <mxPoint x="-466.25" y="1268.5" as="sourcePoint" />
            <mxPoint x="-266.25" y="1268.5" as="targetPoint" />
          </mxGeometry>
        </mxCell>
        <mxCell id="kbP_s4C83WphCyXS9vk1-31" value="" style="endArrow=classic;html=1;rounded=0;fontSize=8;exitX=1;exitY=0.5;exitDx=0;exitDy=0;" parent="1" source="kbP_s4C83WphCyXS9vk1-22" edge="1">
          <mxGeometry width="50" height="50" relative="1" as="geometry">
            <mxPoint x="-216.25" y="1268.5" as="sourcePoint" />
            <mxPoint x="-89" y="1266" as="targetPoint" />
          </mxGeometry>
        </mxCell>
        <mxCell id="kbP_s4C83WphCyXS9vk1-32" value="" style="endArrow=classic;html=1;rounded=0;fontSize=8;entryX=1;entryY=0.5;entryDx=0;entryDy=0;" parent="1" target="kbP_s4C83WphCyXS9vk1-23" edge="1">
          <mxGeometry width="50" height="50" relative="1" as="geometry">
            <mxPoint x="-89" y="1299" as="sourcePoint" />
            <mxPoint x="-375" y="1215" as="targetPoint" />
          </mxGeometry>
        </mxCell>
        <mxCell id="kbP_s4C83WphCyXS9vk1-33" value="" style="endArrow=classic;html=1;rounded=0;fontSize=8;exitX=0;exitY=0.5;exitDx=0;exitDy=0;entryX=1;entryY=0.5;entryDx=0;entryDy=0;" parent="1" source="kbP_s4C83WphCyXS9vk1-23" target="kbP_s4C83WphCyXS9vk1-14" edge="1">
          <mxGeometry width="50" height="50" relative="1" as="geometry">
            <mxPoint x="-425" y="1265" as="sourcePoint" />
            <mxPoint x="-375" y="1215" as="targetPoint" />
          </mxGeometry>
        </mxCell>
        <mxCell id="kbP_s4C83WphCyXS9vk1-34" value="" style="endArrow=classic;html=1;rounded=0;fontSize=8;exitX=0;exitY=0.5;exitDx=0;exitDy=0;entryX=1;entryY=0.5;entryDx=0;entryDy=0;" parent="1" edge="1">
          <mxGeometry width="50" height="50" relative="1" as="geometry">
            <mxPoint x="-427.25" y="1299" as="sourcePoint" />
            <mxPoint x="-627.25" y="1299" as="targetPoint" />
          </mxGeometry>
        </mxCell>
        <mxCell id="kbP_s4C83WphCyXS9vk1-35" value="" style="endArrow=classic;html=1;rounded=0;fontSize=8;exitX=0;exitY=0.5;exitDx=0;exitDy=0;" parent="1" edge="1">
          <mxGeometry width="50" height="50" relative="1" as="geometry">
            <mxPoint x="-677.25" y="1299" as="sourcePoint" />
            <mxPoint x="-811" y="1299" as="targetPoint" />
          </mxGeometry>
        </mxCell>
        <mxCell id="kbP_s4C83WphCyXS9vk1-36" value="&lt;font style=&quot;font-size: 12px&quot;&gt;Forward States&lt;/font&gt;" style="text;html=1;strokeColor=none;fillColor=none;align=center;verticalAlign=middle;whiteSpace=wrap;rounded=0;fontSize=8;" parent="1" vertex="1">
          <mxGeometry x="-840" y="1235" width="60" height="30" as="geometry" />
        </mxCell>
        <mxCell id="kbP_s4C83WphCyXS9vk1-37" value="&lt;font style=&quot;font-size: 12px&quot;&gt;Backward States&lt;/font&gt;" style="text;html=1;strokeColor=none;fillColor=none;align=center;verticalAlign=middle;whiteSpace=wrap;rounded=0;fontSize=8;" parent="1" vertex="1">
          <mxGeometry x="-845" y="1305" width="60" height="30" as="geometry" />
        </mxCell>
        <mxCell id="kbP_s4C83WphCyXS9vk1-38" value="&lt;font style=&quot;font-size: 14px&quot;&gt;t - 1&lt;/font&gt;" style="text;html=1;strokeColor=#82b366;fillColor=none;align=center;verticalAlign=middle;whiteSpace=wrap;rounded=0;fontSize=12;" parent="1" vertex="1">
          <mxGeometry x="-671.25" y="1141" width="60" height="30" as="geometry" />
        </mxCell>
        <mxCell id="kbP_s4C83WphCyXS9vk1-39" value="&lt;font style=&quot;font-size: 14px&quot;&gt;t&lt;/font&gt;" style="text;html=1;strokeColor=#82b366;fillColor=none;align=center;verticalAlign=middle;whiteSpace=wrap;rounded=0;fontSize=12;" parent="1" vertex="1">
          <mxGeometry x="-421.25" y="1141" width="60" height="30" as="geometry" />
        </mxCell>
        <mxCell id="kbP_s4C83WphCyXS9vk1-40" value="&lt;font style=&quot;font-size: 14px&quot;&gt;t + 1&lt;/font&gt;" style="text;html=1;strokeColor=#82b366;fillColor=none;align=center;verticalAlign=middle;whiteSpace=wrap;rounded=0;fontSize=12;" parent="1" vertex="1">
          <mxGeometry x="-171.25" y="1141" width="60" height="30" as="geometry" />
        </mxCell>
        <mxCell id="kbP_s4C83WphCyXS9vk1-41" value="&lt;font style=&quot;font-size: 12px&quot;&gt;&lt;b&gt;LSTM&lt;/b&gt;&lt;/font&gt;" style="whiteSpace=wrap;html=1;aspect=fixed;fontSize=8;fillColor=default;" parent="1" vertex="1">
          <mxGeometry x="-677.25" y="1274" width="50" height="50" as="geometry" />
        </mxCell>
        <mxCell id="kbP_s4C83WphCyXS9vk1-42" value="&lt;font style=&quot;font-size: 12px&quot;&gt;&lt;b&gt;LSTM&lt;/b&gt;&lt;/font&gt;" style="whiteSpace=wrap;html=1;aspect=fixed;fontSize=8;fillColor=default;" parent="1" vertex="1">
          <mxGeometry x="-516.25" y="1244" width="50" height="50" as="geometry" />
        </mxCell>
        <mxCell id="kbP_s4C83WphCyXS9vk1-43" value="&lt;font style=&quot;font-size: 12px&quot;&gt;&lt;b&gt;LSTM&lt;/b&gt;&lt;/font&gt;" style="whiteSpace=wrap;html=1;aspect=fixed;fontSize=8;fillColor=default;" parent="1" vertex="1">
          <mxGeometry x="-427.25" y="1274" width="50" height="50" as="geometry" />
        </mxCell>
        <mxCell id="kbP_s4C83WphCyXS9vk1-44" value="&lt;font style=&quot;font-size: 12px&quot;&gt;&lt;b&gt;LSTM&lt;/b&gt;&lt;/font&gt;" style="whiteSpace=wrap;html=1;aspect=fixed;fontSize=8;fillColor=default;" parent="1" vertex="1">
          <mxGeometry x="-266.25" y="1244" width="50" height="50" as="geometry" />
        </mxCell>
        <mxCell id="kbP_s4C83WphCyXS9vk1-45" value="&lt;font style=&quot;font-size: 12px&quot;&gt;&lt;b&gt;LSTM&lt;/b&gt;&lt;/font&gt;" style="whiteSpace=wrap;html=1;aspect=fixed;fontSize=8;fillColor=default;" parent="1" vertex="1">
          <mxGeometry x="-177.25" y="1274" width="50" height="50" as="geometry" />
        </mxCell>
      </root>
    </mxGraphModel>
  </diagram>
</mxfile>
